<svg width="134" height="38" viewBox="0 0 134 38" fill="none" xmlns="http://www.w3.org/2000/svg">
<path d="M36.0498 16.9092C36.2908 18.3553 36.5146 19.8015 36.7212 21.2476C36.9622 22.6593 37.186 24.0882 37.3926 25.5343C36.7729 25.4999 36.1531 25.4827 35.5333 25.4827C34.948 25.4482 34.3454 25.431 33.7257 25.431L32.7444 35.3473L26.5467 33.7979L26.1335 25.7409C25.7548 25.7753 25.3933 25.8098 25.0489 25.8442C24.7391 25.8442 24.412 25.8614 24.0676 25.8958C23.6889 25.9303 23.3446 25.9647 23.0347 25.9991C22.7592 26.0336 22.4494 26.068 22.105 26.1024C21.7607 26.1369 21.4164 26.1713 21.0721 26.2057C20.7622 26.2401 20.4179 26.2918 20.0391 26.3607C20.349 26.3607 20.6589 26.3779 20.9688 26.4123C21.3131 26.4123 21.6402 26.4295 21.9501 26.464C21.9157 27.2559 21.8985 28.0822 21.8985 28.943C21.8985 29.7694 21.8985 30.6302 21.8985 31.5254C21.9329 32.4895 21.9673 33.4191 22.0017 34.3143C22.0362 35.2096 22.0878 36.0876 22.1567 36.9484C21.0893 36.8795 20.0047 36.7934 18.9029 36.6901C17.8355 36.5868 16.7854 36.4835 15.7524 36.3802C15.4425 34.8308 15.1499 33.2986 14.8744 31.7836C14.6334 30.2686 14.4268 28.7364 14.2547 27.187C14.1858 26.464 14.1169 25.7409 14.0481 25.0178C13.9792 24.2948 13.9103 23.5889 13.8415 22.9003C13.7726 22.8314 13.6693 22.7626 13.5316 22.6937C12.7397 22.1428 11.9994 21.4714 11.3108 20.6795C10.691 19.8875 10.1745 19.0267 9.76134 18.0971C9.38259 17.1674 9.15879 16.2034 9.08992 15.2048C9.08992 14.9294 9.07271 14.6539 9.03828 14.3785C9.03828 14.0686 9.02106 13.7759 8.98663 13.5005C8.98663 13.7071 8.96941 13.9309 8.93498 14.1719C8.93498 14.3785 8.9522 14.6195 8.98663 14.895C8.98663 15.4114 9.03828 15.859 9.14157 16.2378C8.79725 17.0986 8.53902 18.1315 8.36686 19.3366C8.22913 20.2663 8.1947 21.1443 8.26357 21.9706C8.33243 22.797 8.43572 23.5717 8.57345 24.2948C8.74561 24.9834 8.93498 25.6204 9.14157 26.2057C9.34816 26.7566 9.53753 27.2214 9.70969 27.6002C9.12435 27.1182 8.64231 26.6533 8.26357 26.2057C7.88482 25.7237 7.55772 25.2933 7.28227 24.9145C7.04125 24.5358 6.74858 24.0365 6.40426 23.4168C6.05995 22.7626 5.76728 21.9534 5.52626 20.9893C5.38853 20.4384 5.30245 19.9392 5.26802 19.4916C5.23359 19.044 5.23359 18.648 5.26802 18.3037C5.16473 18.7169 5.14751 19.3194 5.21638 20.1113C5.25081 20.4901 5.30245 20.8516 5.37132 21.1959C5.44018 21.5402 5.50904 21.8501 5.57791 22.1256C5.50904 23.3307 5.57791 24.5874 5.7845 25.8958C6.05995 27.6174 6.47313 29.1324 7.02403 30.4408C7.57494 31.7148 8.10862 32.7821 8.6251 33.6429C8.31521 33.4363 7.83317 33.1092 7.17897 32.6616C6.52477 32.1796 5.81893 31.5426 5.06143 30.7507C4.30394 29.9588 3.54645 28.9947 2.78895 27.8584C2.06589 26.7222 1.46334 25.4138 0.981298 23.9332C0.912435 23.7266 0.774709 23.2102 0.56812 22.3838C0.361531 21.523 0.223805 20.4729 0.154942 19.2333C0.12051 17.9594 0.223805 16.5477 0.464826 14.9983C0.740278 13.4488 1.3084 11.8822 2.16919 10.2984C2.85782 8.98995 3.66696 7.8365 4.59661 6.83798C5.52626 5.83947 6.49034 4.97868 7.48886 4.25562C8.48737 3.49813 9.46867 2.87836 10.4328 2.39632C11.3968 1.91428 12.2748 1.55275 13.0668 1.31172C13.8931 1.03627 14.5645 0.881329 15.081 0.846898C15.6319 0.812467 15.959 0.864114 16.0623 1.00184C16.1656 1.13957 16.0107 1.41502 15.5975 1.8282C15.1843 2.20694 14.685 2.74063 14.0997 3.42926C13.5144 4.08346 12.929 4.8926 12.3437 5.85668C11.7584 6.82077 11.3452 7.95701 11.1042 9.26541C11.0697 9.472 11.0181 9.81631 10.9492 10.2984C10.9148 10.7804 10.9148 11.3485 10.9492 12.0027C11.0181 12.6225 11.1558 13.3111 11.3624 14.0686C11.6034 14.8261 11.9477 15.5836 12.3953 16.3411C12.5675 16.6165 12.7397 16.8576 12.9118 17.0641C13.1184 17.2707 13.325 17.4601 13.5316 17.6323C13.4627 15.6352 13.4111 13.6382 13.3766 11.6412C13.3766 9.64415 13.4111 7.61269 13.4799 5.5468C15.2704 5.61566 17.0608 5.68453 18.8513 5.75339C20.6761 5.78782 22.4838 5.83947 24.2742 5.90833C23.8955 8.04309 23.5512 10.1606 23.2413 12.2609C22.9314 14.3268 22.6732 16.4272 22.4666 18.5619C23.0175 18.4586 23.5512 18.3553 24.0676 18.252C24.6185 18.1487 25.1694 18.0627 25.7203 17.9938L24.9973 4.97868C26.8222 4.90982 28.6298 4.85817 30.4203 4.82374C32.2107 4.78931 34.0011 4.73766 35.7916 4.6688C35.6194 6.66583 35.43 8.64564 35.2235 10.6082C35.0169 12.5708 34.8103 14.5506 34.6037 16.5477C34.1561 16.651 33.7085 16.7715 33.2609 16.9092C32.8132 17.0125 32.3484 17.1158 31.8664 17.2191C32.3484 17.1502 32.8305 17.1158 33.3125 17.1158C33.829 17.0814 34.3282 17.0297 34.8103 16.9609C35.0169 16.9609 35.2234 16.9609 35.43 16.9609C35.6366 16.9609 35.8432 16.9436 36.0498 16.9092ZM59.6768 15.618C60.1933 17.3052 60.5032 19.13 60.6065 21.0926C60.7098 23.0208 60.5548 24.9145 60.1416 26.7738C59.7629 28.6331 59.0915 30.3719 58.1274 31.9902C57.1633 33.5741 55.8549 34.8652 54.2022 35.8638H54.1506C53.9784 35.9671 53.8062 36.0703 53.6341 36.1736C53.4619 36.2425 53.2898 36.3114 53.1176 36.3802C53.0143 36.4147 52.825 36.4835 52.5495 36.5868C52.3085 36.6557 52.0158 36.7418 51.6715 36.8451C51.3272 36.9139 50.9484 36.9828 50.5353 37.0516C50.1565 37.1549 49.8122 37.2066 49.5023 37.2066C48.5382 37.241 47.5397 37.0689 46.5068 36.6901C45.4738 36.3114 44.4753 35.7088 43.5112 34.8825C42.5816 34.0217 41.738 32.9543 40.9805 31.6803C40.2574 30.3719 39.7065 28.8397 39.3278 27.0837C39.7754 26.9116 40.1886 26.7394 40.5673 26.5672C40.8772 26.4295 41.1527 26.309 41.3937 26.2057C41.6691 26.1024 41.8413 26.0336 41.9102 25.9991L38.3981 26.9288C38.1227 24.5874 38.0366 22.5732 38.1399 20.886C38.2432 19.1645 38.467 17.5978 38.8113 16.1861C39.1901 14.6367 39.827 13.1562 40.7223 11.7445C41.6175 10.2984 42.7365 9.12768 44.0793 8.23246C45.0779 7.5094 46.1969 7.02736 47.4364 6.78634C48.676 6.54532 49.8983 6.54532 51.1034 6.78634C52.4118 7.06179 53.5652 7.56105 54.5637 8.28411C55.5623 8.97274 56.4575 9.81631 57.2494 10.8148C57.5249 11.1936 57.7487 11.5379 57.9208 11.8478C58.2996 12.3987 58.6094 12.9668 58.8505 13.5521C59.1259 14.1375 59.3669 14.7228 59.5735 15.3081C59.5735 15.377 59.608 15.4803 59.6768 15.618ZM52.7561 23.7783C52.9282 22.0223 52.7217 20.3696 52.1363 18.8202C52.0675 18.6136 51.9297 18.3037 51.7231 17.8905C51.5166 17.4773 51.2755 17.0814 51.0001 16.7026C50.7246 16.3239 50.432 16.0312 50.1221 15.8246C49.8122 15.618 49.5023 15.618 49.1924 15.8246C48.917 15.9968 48.7104 16.255 48.5727 16.5993C48.4349 16.9436 48.3316 17.3224 48.2628 17.7356C48.1939 18.1143 48.1423 18.5103 48.1078 18.9234C48.1078 19.3366 48.0906 19.6809 48.0562 19.9564C48.0562 20.0597 48.0562 20.3524 48.0562 20.8344C48.0906 21.3164 48.1078 21.8329 48.1078 22.3838C48.1423 22.9347 48.1595 23.4168 48.1595 23.8299C48.1939 24.2431 48.2283 24.4497 48.2628 24.4497C47.7807 24.5874 47.2815 24.7079 46.765 24.8112C46.283 24.9145 45.8009 25.035 45.3189 25.1728C45.5255 26.5156 46.0936 27.7379 47.0232 28.8397C47.3676 29.2529 47.7807 29.6144 48.2628 29.9243C48.7448 30.1998 49.2441 30.2686 49.7605 30.1309C50.1737 30.0276 50.518 29.8038 50.7935 29.4595C51.1034 29.0807 51.3444 28.702 51.5166 28.3233C51.8609 27.6346 52.1363 26.9116 52.3429 26.1541C52.5495 25.3621 52.6872 24.5702 52.7561 23.7783ZM80.0327 25.3277C80.136 26.8427 80.2565 28.3405 80.3942 29.821C80.5664 31.3016 80.773 32.7649 81.014 34.211L81.169 35.1923C79.3441 35.6744 77.502 35.7088 75.6427 35.2956C73.8178 34.848 72.1479 34.0733 70.6329 32.9715C70.5296 33.6257 70.4263 34.2971 70.323 34.9858C70.2197 35.64 70.1164 36.3114 70.0131 37L64.2286 36.0187C64.2975 32.6788 64.2286 29.4251 64.0221 26.2574C63.8499 23.0897 63.5056 19.8875 62.9891 16.651C62.8858 16.6854 62.662 16.737 62.3177 16.8059C62.0078 16.8748 61.784 16.9264 61.6463 16.9609C61.2675 15.3081 60.8544 13.6899 60.4067 12.106C59.9591 10.4877 59.4943 8.85223 59.0123 7.19952C60.424 6.99293 62.0078 6.83798 63.7638 6.73469C65.5198 6.59696 67.2758 6.57975 69.0318 6.68304C70.8223 6.78634 72.5266 7.04457 74.1449 7.45775C75.7976 7.87093 77.2093 8.52513 78.38 9.42035C79.5162 10.2467 80.377 11.2624 80.9624 12.4675C81.5477 13.6726 81.8576 14.9294 81.892 16.2378C81.9609 17.5462 81.7371 18.8202 81.2206 20.0597C80.7041 21.2992 79.895 22.3666 78.7932 23.2618C78.2767 23.7439 77.7774 24.157 77.2954 24.5014C76.8478 24.8457 76.3141 25.1728 75.6943 25.4827C75.4189 25.4482 75.1607 25.4138 74.9196 25.3794C74.713 25.3449 74.5065 25.3277 74.2999 25.3277C74.1277 25.2933 73.99 25.2588 73.8867 25.2244L74.0416 25.2761C74.4548 25.4138 74.7819 25.5171 75.0229 25.5859C75.2639 25.6204 75.4017 25.6376 75.4361 25.6376C76.1936 25.7409 76.9511 25.7409 77.7086 25.6376C78.4661 25.4999 79.2408 25.3966 80.0327 25.3277ZM71.7691 19.7498C71.9413 19.6465 72.1995 19.4744 72.5439 19.2333C72.8882 18.9923 73.2153 18.7169 73.5252 18.407C73.835 18.0971 74.0761 17.7872 74.2482 17.4773C74.4204 17.133 74.4204 16.8231 74.2482 16.5477L74.0933 16.3927C73.9211 16.2206 73.7317 16.1173 73.5252 16.0828C73.353 16.014 73.1636 15.9623 72.957 15.9279C72.9226 15.8935 72.8882 15.8763 72.8537 15.8763C72.5439 15.8074 72.2684 15.773 72.0274 15.773C71.7864 15.773 71.597 15.773 71.4593 15.773C71.2182 15.8074 70.9428 15.8246 70.6329 15.8246C70.3575 15.7902 70.0304 15.773 69.6516 15.773C69.9271 15.8074 70.1853 15.8418 70.4263 15.8763C70.6673 15.9107 70.9084 15.9451 71.1494 15.9796C71.4248 16.014 71.6486 16.0484 71.8208 16.0828C71.8208 16.6682 71.8036 17.288 71.7691 17.9422C71.7691 18.5619 71.7691 19.1645 71.7691 19.7498ZM93.8867 29.4595C93.6112 29.4939 93.353 29.5111 93.112 29.5111C92.9398 29.5456 92.7677 29.5628 92.5955 29.5628C92.4234 29.5628 92.3373 29.58 92.3373 29.6144L96.1075 29.9243L95.9009 36.5868L84.6935 37.1033L84.3319 28.8914L87.0176 29.1496C86.7422 27.9445 86.5011 26.7566 86.2945 25.5859C86.088 24.4153 85.8986 23.2618 85.7264 22.1256C85.3132 19.4744 85.0378 16.8576 84.9001 14.2752L86.7077 14.1719L83.1957 13.9137L83.4539 7.19952L96.0042 6.88963L96.4174 14.8433L93.9383 14.6884C93.7318 16.9609 93.6285 19.3022 93.6285 21.7124C93.594 22.9864 93.594 24.2603 93.6285 25.5343C93.6973 26.7738 93.7834 28.0822 93.8867 29.4595ZM106.948 29.0463C107.293 29.0119 107.62 28.9947 107.93 28.9947C108.274 28.9602 108.618 28.943 108.962 28.943L117.949 28.4782L117.329 36.7934L98.5297 36.8451C98.5297 36.7073 98.5125 36.3114 98.4781 35.6572C98.4436 34.9685 98.4092 34.2455 98.3748 33.488C98.3403 32.6961 98.3059 31.973 98.2715 31.3188C98.237 30.6646 98.2198 30.2859 98.2198 30.1826L98.7363 29.4595C100.045 27.6691 101.301 25.9303 102.507 24.2431C103.746 22.556 104.848 21.0582 105.812 19.7498C106.776 18.4414 107.568 17.374 108.188 16.5477C108.808 15.6869 109.152 15.2048 109.221 15.1015C109.599 15.0327 109.995 14.981 110.409 14.9466C110.822 14.8777 111.218 14.8089 111.596 14.74C111.218 14.7745 110.822 14.8089 110.409 14.8433C109.995 14.8433 109.599 14.8605 109.221 14.895C107.361 14.9983 105.519 15.1016 103.694 15.2048C101.904 15.2737 100.096 15.3598 98.2715 15.4631L98.8912 7.04457H117.691C117.691 7.25116 117.708 7.68156 117.742 8.33576C117.777 8.98995 117.811 9.6958 117.846 10.4533C117.88 11.1764 117.915 11.8478 117.949 12.4675C117.984 13.0873 118.001 13.4833 118.001 13.6554C118.001 13.6899 117.932 13.8276 117.794 14.0686C117.656 14.3096 117.57 14.4301 117.536 14.4301C116.193 16.7026 114.764 19.0956 113.249 21.6091C111.734 24.0882 110.288 26.464 108.911 28.7364C108.566 28.8053 108.239 28.8569 107.93 28.8914C107.62 28.9258 107.293 28.9775 106.948 29.0463ZM140.174 15.618C140.69 17.3052 141 19.13 141.104 21.0926C141.207 23.0208 141.052 24.9145 140.639 26.7738C140.26 28.6331 139.589 30.3719 138.625 31.9902C137.66 33.5741 136.352 34.8652 134.699 35.8638H134.648C134.476 35.9671 134.303 36.0703 134.131 36.1736C133.959 36.2425 133.787 36.3114 133.615 36.3802C133.511 36.4147 133.322 36.4835 133.047 36.5868C132.806 36.6557 132.513 36.7418 132.169 36.8451C131.824 36.9139 131.446 36.9828 131.032 37.0516C130.654 37.1549 130.309 37.2066 129.999 37.2066C129.035 37.241 128.037 37.0689 127.004 36.6901C125.971 36.3114 124.972 35.7088 124.008 34.8825C123.079 34.0217 122.235 32.9543 121.478 31.6803C120.755 30.3719 120.204 28.8397 119.825 27.0837C120.273 26.9116 120.686 26.7394 121.064 26.5672C121.374 26.4295 121.65 26.309 121.891 26.2057C122.166 26.1024 122.338 26.0336 122.407 25.9991L118.895 26.9288C118.62 24.5874 118.534 22.5732 118.637 20.886C118.74 19.1645 118.964 17.5978 119.308 16.1861C119.687 14.6367 120.324 13.1562 121.219 11.7445C122.115 10.2984 123.234 9.12768 124.576 8.23246C125.575 7.5094 126.694 7.02736 127.934 6.78634C129.173 6.54532 130.395 6.54532 131.601 6.78634C132.909 7.06179 134.062 7.56105 135.061 8.28411C136.059 8.97274 136.955 9.81631 137.747 10.8148C138.022 11.1936 138.246 11.5379 138.418 11.8478C138.797 12.3987 139.107 12.9668 139.348 13.5521C139.623 14.1375 139.864 14.7228 140.071 15.3081C140.071 15.377 140.105 15.4803 140.174 15.618ZM133.253 23.7783C133.425 22.0223 133.219 20.3696 132.633 18.8202C132.565 18.6136 132.427 18.3037 132.22 17.8905C132.014 17.4773 131.773 17.0814 131.497 16.7026C131.222 16.3239 130.929 16.0312 130.619 15.8246C130.309 15.618 129.999 15.618 129.69 15.8246C129.414 15.9968 129.208 16.255 129.07 16.5993C128.932 16.9436 128.829 17.3224 128.76 17.7356C128.691 18.1143 128.639 18.5103 128.605 18.9234C128.605 19.3366 128.588 19.6809 128.553 19.9564C128.553 20.0597 128.553 20.3524 128.553 20.8344C128.588 21.3164 128.605 21.8329 128.605 22.3838C128.639 22.9347 128.657 23.4168 128.657 23.8299C128.691 24.2431 128.725 24.4497 128.76 24.4497C128.278 24.5874 127.779 24.7079 127.262 24.8112C126.78 24.9145 126.298 25.035 125.816 25.1728C126.023 26.5156 126.591 27.7379 127.52 28.8397C127.865 29.2529 128.278 29.6144 128.76 29.9243C129.242 30.1998 129.741 30.2686 130.258 30.1309C130.671 30.0276 131.015 29.8038 131.291 29.4595C131.601 29.0807 131.842 28.702 132.014 28.3233C132.358 27.6346 132.633 26.9116 132.84 26.1541C133.047 25.3621 133.184 24.5702 133.253 23.7783ZM164.887 7.04457C164.164 11.7273 163.785 16.4272 163.751 21.1443C163.717 25.8614 163.837 30.6818 164.112 35.6055L155.642 34.6242C154.678 32.7305 153.628 30.8368 152.492 28.943C151.39 27.0149 150.237 25.1728 149.031 23.4168C149.307 23.8644 149.565 24.3464 149.806 24.8629C150.047 25.3449 150.305 25.8098 150.581 26.2574C150.753 28.0478 150.822 29.8727 150.787 31.732C150.753 33.5568 150.65 35.2784 150.478 36.8967L143.195 35.3473C143.299 30.5269 143.333 25.7753 143.299 21.0926C143.264 16.4099 142.868 11.7617 142.111 7.14787L149.548 6.6314C149.996 7.45775 150.443 8.33576 150.891 9.26541C151.373 10.1951 151.838 11.0731 152.285 11.8994C152.939 13.2078 153.576 14.499 154.196 15.773C154.85 17.0469 155.487 18.3209 156.107 19.5949C156.314 19.9736 156.52 20.3696 156.727 20.7828C156.934 21.1615 157.123 21.5402 157.295 21.919C157.123 21.5402 156.951 21.1099 156.779 20.6278C156.606 20.1113 156.434 19.6637 156.262 19.285C156.193 18.6652 156.159 18.0971 156.159 17.5806C156.159 17.0297 156.142 16.4099 156.107 15.7213C156.038 14.1719 156.038 12.6741 156.107 11.228C156.176 9.74745 156.262 8.35297 156.365 7.04457C157.364 7.04457 158.38 7.04457 159.413 7.04457C160.273 7.01014 161.186 6.99293 162.15 6.99293C163.148 6.99293 164.061 7.01014 164.887 7.04457Z" fill="url(#paint0_linear_21_22)"/>
<defs>
<linearGradient id="paint0_linear_21_22" x1="83" y1="-4" x2="83" y2="48" gradientUnits="userSpaceOnUse">
<stop stop-color="#DCE35B"/>
<stop offset="1" stop-color="#45B649"/>
</linearGradient>
</defs>
</svg>
