<svg width="26" height="26" viewBox="0 0 26 26" fill="none" xmlns="http://www.w3.org/2000/svg">
<path d="M25.7535 24.5855L19.0408 17.98C20.7986 16.0701 21.8787 13.5443 21.8787 10.7649C21.8779 4.81923 16.9806 0 10.9391 0C4.89751 0 0.000244141 4.81923 0.000244141 10.7649C0.000244141 16.7105 4.89751 21.5298 10.9391 21.5298C13.5494 21.5298 15.9436 20.6269 17.8242 19.1258L24.563 25.7574C24.8914 26.0808 25.4244 26.0808 25.7528 25.7574C26.0819 25.434 26.0819 24.909 25.7535 24.5855ZM10.9391 19.8735C5.82725 19.8735 1.68333 15.7955 1.68333 10.7649C1.68333 5.73431 5.82725 1.65624 10.9391 1.65624C16.0509 1.65624 20.1948 5.73431 20.1948 10.7649C20.1948 15.7955 16.0509 19.8735 10.9391 19.8735Z" fill="white"/>
</svg>
