<svg width="222" height="44" viewBox="0 0 222 44" fill="none" xmlns="http://www.w3.org/2000/svg">
<path d="M10.3125 0.46875H19.3594C25.8125 0.46875 30.8516 1.95312 34.4766 4.92188C37.1328 7.09375 39.0938 9.26562 40.3594 11.4375H42.5859C44.4922 14.6875 45.4453 17.4922 45.4453 19.8516V20.1797C45.4453 20.2266 45.3359 20.3828 45.1172 20.6484L44.3203 20.5078H43.0547V21.2812C43.0547 21.5 42.9453 21.6094 42.7266 21.6094H40.9922V22.875H42.7266C42.9453 22.9062 43.0547 23.0156 43.0547 23.2031V23.5078C43.0547 25.8203 42.1562 28.8438 40.3594 32.5781C40.1406 32.6094 40.0312 32.7188 40.0312 32.9062V33.0469H43.0547C43.2578 33.0781 43.3594 33.1875 43.3594 33.375C43.0156 33.5781 42.7031 33.6797 42.4219 33.6797H39.7031L37.3359 36.5625H34.3125C32.7188 36.5625 31.9219 36.8203 31.9219 37.3359V37.5H36.0469C36.2656 37.5312 36.375 37.6406 36.375 37.8281C36.2031 37.8281 35.5703 38.3047 34.4766 39.2578C30.4766 42.1172 26.6094 43.5469 22.875 43.5469H5.36719V37.8281C5.36719 37.6094 5.26562 37.5 5.0625 37.5H4.73438C1.98438 37.5 0.609375 37.3438 0.609375 37.0312V36.8672C0.640625 36.6641 0.75 36.5625 0.9375 36.5625H5.0625C5.26562 36.5625 5.36719 36.4531 5.36719 36.2344V33.6797C6.07031 33.6797 7.13281 33.6328 8.55469 33.5391V33.2109C7.11719 33.1016 6.10938 33.0469 5.53125 33.0469L5.36719 32.7422V23.3672C5.36719 23.2109 5.21094 23.0469 4.89844 22.875H3.46875C3.26562 22.875 3.16406 22.7734 3.16406 22.5703V21.9375C3.16406 21.6875 3.58594 21.5234 4.42969 21.4453L4.73438 21.6094L5.85938 20.6484C7.23438 20.6484 7.92188 20.4922 7.92188 20.1797V11.7656C7.92188 11.5156 7.07031 11.2969 5.36719 11.1094V0.9375L5.53125 0.632812C7.65625 0.523437 9.25 0.46875 10.3125 0.46875ZM16.8281 9.375V11.1094C16.8594 11.3281 16.9609 11.4375 17.1328 11.4375H19.0547C19.2578 11.4687 19.3594 11.5781 19.3594 11.7656V20.1797C19.3594 20.2578 19.2031 20.4141 18.8906 20.6484L18.0938 20.5078H17.1328L16.5 21.6094H15.0703C14.8672 21.6406 14.7656 21.75 14.7656 21.9375V22.875H16.5C16.5938 22.875 16.7578 23.0391 16.9922 23.3672L16.8281 24.1641V30.3516C16.8281 30.5859 16.8828 30.7969 16.9922 30.9844C16.8828 31.1719 16.8281 31.3828 16.8281 31.6172V32.25L16.9922 33.0469H18.8906C19.125 33.0469 19.3359 33.1016 19.5234 33.2109C19.7109 33.1016 19.9219 33.0469 20.1562 33.0469L20.3203 33.375L19.6875 33.6797C19.4688 33.6797 19.3594 33.6328 19.3594 33.5391L18.2578 33.6797H16.9922L16.8281 34.4766V34.8047C16.8594 35.0234 16.9609 35.1328 17.1328 35.1328H20.4844C21.5156 35.1328 23.2109 34.6484 25.5703 33.6797C27.1641 33.5859 28.3281 33.5391 29.0625 33.5391L29.2266 33.2109C28.1641 33.1016 27.3672 33.0469 26.8359 33.0469H26.5312V32.7422C28.4844 31.3203 29.9141 29.25 30.8203 26.5312L31.6172 23.2031L31.125 22.875H29.6953C29.4922 22.875 29.3906 22.7734 29.3906 22.5703V21.9375C29.3906 21.7812 29.5469 21.6172 29.8594 21.4453C29.9688 21.4453 30.0234 21.5 30.0234 21.6094C31.0078 21.6094 31.6406 21.2891 31.9219 20.6484H32.8828L33.9844 20.5078V20.1797C33.5938 17.0547 32.0625 14.1953 29.3906 11.6016C27.0625 11.4141 25.625 11.0391 25.0781 10.4766C23.375 9.52344 21.9453 9.04688 20.7891 9.04688H17.1328C16.9297 9.07812 16.8281 9.1875 16.8281 9.375ZM4.59375 11.4375H4.89844C5.11719 11.4687 5.22656 11.5781 5.22656 11.7656V12.0703C5.22656 12.2578 4.96094 12.4141 4.42969 12.5391L4.26562 12.2344V11.7656C4.29688 11.5469 4.40625 11.4375 4.59375 11.4375ZM27.1641 20.6484H28.8984C29.1172 20.6797 29.2266 20.7891 29.2266 20.9766V21.1406C29.2266 21.3438 29.1172 21.4453 28.8984 21.4453H27.4688C27.2656 21.4453 27.1641 21.3438 27.1641 21.1406V20.6484ZM1.71094 21.4453H2.03906C2.25781 21.4766 2.36719 21.5859 2.36719 21.7734V22.5703C2.36719 22.7734 2.25781 22.875 2.03906 22.875H1.40625V21.7734C1.4375 21.5547 1.53906 21.4453 1.71094 21.4453ZM51.1406 0.46875H73.6875C73.8281 0.46875 73.9844 0.625 74.1562 0.9375V6.35156C74.1562 6.49219 74.3125 6.64844 74.625 6.82031H75.2578C75.5078 6.82031 75.7266 6.76563 75.9141 6.65625C76.4297 6.79688 76.6875 6.95313 76.6875 7.125V7.45312C76.6875 7.65625 76.5859 7.75781 76.3828 7.75781H75.5859V8.55469C75.5859 8.77344 75.4766 8.88281 75.2578 8.88281H64.3125C63.2031 8.88281 61.5156 8.9375 59.25 9.04688V10.4766C59.2812 10.6797 59.3828 10.7812 59.5547 10.7812H60.9844C61.2031 10.8125 61.3125 10.9219 61.3125 11.1094V17.9297H75.1172C75.3203 17.9609 75.4219 18.0625 75.4219 18.2344V20.625C75.4219 20.8281 74.8438 20.9844 73.6875 21.0938L73.3594 20.9297L72.4219 21.0938C72.2031 20.9844 72.0391 20.9297 71.9297 20.9297L71.7656 21.7266V24.4219L71.9297 26.0156L71.4609 26.3438H57.9609C57.9609 26.7031 57.5938 26.9141 56.8594 26.9766L55.8984 26.8125H55.5938C55.375 26.8438 55.2656 26.9531 55.2656 27.1406V27.2812H56.2266L57.8203 27.4453V32.6953C57.8203 33.2578 58.1328 33.5703 58.7578 33.6328C58.7578 33.8672 58.8125 34.0781 58.9219 34.2656C58.8125 34.4531 58.7578 34.6641 58.7578 34.8984V35.0625H73.8516C74.0547 35.0625 74.2109 35.5938 74.3203 36.6562H76.6875C76.9062 36.6875 77.0156 36.7891 77.0156 36.9609C77.0156 37.1797 76.9062 37.2891 76.6875 37.2891H74.9531L74.1562 37.4531V43.4766H48.1406C48.0312 43.4766 47.9766 43.4219 47.9766 43.3125L47.6484 43.4766H46.7109C46.5547 43.4766 46.3906 43.3203 46.2188 43.0078V42.6797C46.2188 42.5703 46.2734 42.5156 46.3828 42.5156L46.2188 42.2109V38.3906L45.4219 38.25H44.0156C43.7969 38.25 43.6875 38.1406 43.6875 37.9219V37.5938C43.7188 37.3906 43.8281 37.2891 44.0156 37.2891C45.7812 37.1797 47.1562 37.125 48.1406 37.125H48.7734V36.8203L47.1797 36.6562H46.5469C46.3281 36.6562 46.2188 36.5 46.2188 36.1875L46.3828 35.8594C46.2734 35.6719 46.2188 35.4609 46.2188 35.2266C46.2188 35.0859 46.5391 34.9297 47.1797 34.7578C47.2891 34.5703 47.3438 34.3516 47.3438 34.1016C47.3438 33.6484 46.9688 33.3906 46.2188 33.3281V27.9141L46.3828 27.6094L46.0781 27.4453H44.0156C43.7969 27.4453 43.6875 27.3438 43.6875 27.1406C43.7188 26.9219 43.8281 26.8125 44.0156 26.8125H45.9141C46.1172 26.8125 46.2188 26.7031 46.2188 26.4844V21.2578C46.2188 21.0391 46.3828 20.9297 46.7109 20.9297C47.0391 20.9297 48.0391 20.8828 49.7109 20.7891V11.1094C49.7109 10.7812 49.1328 10.6172 47.9766 10.6172H47.6484V8.08594L48.7734 7.45312V7.125C48.7734 6.92187 48.6641 6.82031 48.4453 6.82031H46.5469C46.3281 6.82031 46.2188 6.71094 46.2188 6.49219V0.9375L46.3828 0.632812C48.5078 0.523437 50.0938 0.46875 51.1406 0.46875ZM45.1172 19.5234H45.9141C46.1172 19.5547 46.2188 19.6562 46.2188 19.8281V20.625C46.2188 20.8281 46.1172 20.9297 45.9141 20.9297H45.1172C44.8984 20.9297 44.7891 20.8281 44.7891 20.625V19.8281C44.8359 19.625 44.9453 19.5234 45.1172 19.5234ZM50.8359 37.125H52.2656V36.8203H51.1406C50.9375 36.8516 50.8359 36.9531 50.8359 37.125ZM67.9688 37.2891V37.9219C68 38.1406 68.1094 38.25 68.2969 38.25H70.5C70.5 38.125 70.5547 37.9609 70.6641 37.7578C70.5547 37.5547 70.5 37.3984 70.5 37.2891H67.9688ZM81 0.46875H90.0469C96.5 0.46875 101.539 1.95312 105.164 4.92188C107.82 7.09375 109.781 9.26562 111.047 11.4375H113.273C115.18 14.6875 116.133 17.4922 116.133 19.8516V20.1797C116.133 20.2266 116.023 20.3828 115.805 20.6484L115.008 20.5078H113.742V21.2812C113.742 21.5 113.633 21.6094 113.414 21.6094H111.68V22.875H113.414C113.633 22.9062 113.742 23.0156 113.742 23.2031V23.5078C113.742 25.8203 112.844 28.8438 111.047 32.5781C110.828 32.6094 110.719 32.7188 110.719 32.9062V33.0469H113.742C113.945 33.0781 114.047 33.1875 114.047 33.375C113.703 33.5781 113.391 33.6797 113.109 33.6797H110.391L108.023 36.5625H105C103.406 36.5625 102.609 36.8203 102.609 37.3359V37.5H106.734C106.953 37.5312 107.062 37.6406 107.062 37.8281C106.891 37.8281 106.258 38.3047 105.164 39.2578C101.164 42.1172 97.2969 43.5469 93.5625 43.5469H76.0547V37.8281C76.0547 37.6094 75.9531 37.5 75.75 37.5H75.4219C72.6719 37.5 71.2969 37.3438 71.2969 37.0312V36.8672C71.3281 36.6641 71.4375 36.5625 71.625 36.5625H75.75C75.9531 36.5625 76.0547 36.4531 76.0547 36.2344V33.6797C76.7578 33.6797 77.8203 33.6328 79.2422 33.5391V33.2109C77.8047 33.1016 76.7969 33.0469 76.2188 33.0469L76.0547 32.7422V23.3672C76.0547 23.2109 75.8984 23.0469 75.5859 22.875H74.1562C73.9531 22.875 73.8516 22.7734 73.8516 22.5703V21.9375C73.8516 21.6875 74.2734 21.5234 75.1172 21.4453L75.4219 21.6094L76.5469 20.6484C77.9219 20.6484 78.6094 20.4922 78.6094 20.1797V11.7656C78.6094 11.5156 77.7578 11.2969 76.0547 11.1094V0.9375L76.2188 0.632812C78.3438 0.523437 79.9375 0.46875 81 0.46875ZM87.5156 9.375V11.1094C87.5469 11.3281 87.6484 11.4375 87.8203 11.4375H89.7422C89.9453 11.4687 90.0469 11.5781 90.0469 11.7656V20.1797C90.0469 20.2578 89.8906 20.4141 89.5781 20.6484L88.7812 20.5078H87.8203L87.1875 21.6094H85.7578C85.5547 21.6406 85.4531 21.75 85.4531 21.9375V22.875H87.1875C87.2812 22.875 87.4453 23.0391 87.6797 23.3672L87.5156 24.1641V30.3516C87.5156 30.5859 87.5703 30.7969 87.6797 30.9844C87.5703 31.1719 87.5156 31.3828 87.5156 31.6172V32.25L87.6797 33.0469H89.5781C89.8125 33.0469 90.0234 33.1016 90.2109 33.2109C90.3984 33.1016 90.6094 33.0469 90.8438 33.0469L91.0078 33.375L90.375 33.6797C90.1562 33.6797 90.0469 33.6328 90.0469 33.5391L88.9453 33.6797H87.6797L87.5156 34.4766V34.8047C87.5469 35.0234 87.6484 35.1328 87.8203 35.1328H91.1719C92.2031 35.1328 93.8984 34.6484 96.2578 33.6797C97.8516 33.5859 99.0156 33.5391 99.75 33.5391L99.9141 33.2109C98.8516 33.1016 98.0547 33.0469 97.5234 33.0469H97.2188V32.7422C99.1719 31.3203 100.602 29.25 101.508 26.5312L102.305 23.2031L101.812 22.875H100.383C100.18 22.875 100.078 22.7734 100.078 22.5703V21.9375C100.078 21.7812 100.234 21.6172 100.547 21.4453C100.656 21.4453 100.711 21.5 100.711 21.6094C101.695 21.6094 102.328 21.2891 102.609 20.6484H103.57L104.672 20.5078V20.1797C104.281 17.0547 102.75 14.1953 100.078 11.6016C97.75 11.4141 96.3125 11.0391 95.7656 10.4766C94.0625 9.52344 92.6328 9.04688 91.4766 9.04688H87.8203C87.6172 9.07812 87.5156 9.1875 87.5156 9.375ZM75.2812 11.4375H75.5859C75.8047 11.4687 75.9141 11.5781 75.9141 11.7656V12.0703C75.9141 12.2578 75.6484 12.4141 75.1172 12.5391L74.9531 12.2344V11.7656C74.9844 11.5469 75.0938 11.4375 75.2812 11.4375ZM97.8516 20.6484H99.5859C99.8047 20.6797 99.9141 20.7891 99.9141 20.9766V21.1406C99.9141 21.3438 99.8047 21.4453 99.5859 21.4453H98.1562C97.9531 21.4453 97.8516 21.3438 97.8516 21.1406V20.6484ZM72.3984 21.4453H72.7266C72.9453 21.4766 73.0547 21.5859 73.0547 21.7734V22.5703C73.0547 22.7734 72.9453 22.875 72.7266 22.875H72.0938V21.7734C72.125 21.5547 72.2266 21.4453 72.3984 21.4453ZM132.234 0.398438C132.406 0.507813 132.609 0.5625 132.844 0.5625H133.312C135.562 0.5625 137.055 0.820312 137.789 1.33594H138.703C139.016 1.33594 140.352 1.84375 142.711 2.85938H144.258C144.414 2.85938 144.57 3.01563 144.727 3.32812C144.617 3.4375 144.203 3.49219 143.484 3.49219C145.344 5.13281 146.273 6.05469 146.273 6.25781V6.42188C146.227 6.59375 144.266 8.49219 140.391 12.1172H138.234C136.141 10.1016 134.547 9.02344 133.453 8.88281H133.312C131.25 8.88281 130.219 9.29688 130.219 10.125C129.781 10.125 129.523 10.8438 129.445 12.2812L129.609 13.0547H130.992C131.336 13.0547 131.797 13.3125 132.375 13.8281C133.094 13.9688 133.453 14.1719 133.453 14.4375L133.312 14.7422L133.617 14.9062H137.32V15.375H134.227V15.5156C134.258 15.7969 135.336 16.3125 137.461 17.0625C141.539 18.2656 144.781 19.9141 147.188 22.0078C147.188 22.1328 147.703 22.75 148.734 23.8594C147.5 23.9531 146.883 24.1016 146.883 24.3047C147.117 24.3047 147.273 24.5625 147.352 25.0781H149.203C149.484 25.0781 149.789 25.6953 150.117 26.9297L149.812 27.0938H148.266C148.062 27.125 147.961 27.2266 147.961 27.3984H149.977C150.117 27.3984 150.266 27.5547 150.422 27.8672V28.1719C150.422 28.375 150.32 28.4766 150.117 28.4766H148.57V28.6406C148.57 29.1719 148.625 30.0469 148.734 31.2656C148.734 32.9688 148.117 34.9766 146.883 37.2891C146.68 37.3203 146.578 37.4219 146.578 37.5938V37.8984H148.734C148.938 37.9297 149.039 38.0312 149.039 38.2031C148.914 38.2031 148.25 38.875 147.047 40.2188C144.359 42.2656 140.703 43.2891 136.078 43.2891H135.938C130.266 43.2891 125.633 41.5391 122.039 38.0391C119.367 37.8672 118.031 37.3047 118.031 36.3516C117.047 35.4609 116.531 34.6406 116.484 33.8906C118.016 32.875 119.195 32.1562 120.023 31.7344L120.656 31.875C120.953 31.7969 122.445 30.9219 125.133 29.25H126.984C127.156 29.25 127.719 30.0234 128.672 31.5703V31.875H128.203V32.1797C129.953 33.7266 131.703 34.5 133.453 34.5C136.125 34.0625 137.461 32.7734 137.461 30.6328C137.461 30.3047 137.203 29.5859 136.688 28.4766H138.234V28.3359C137.969 27.8203 137.562 27.5625 137.016 27.5625H135.469C135.031 27.5625 134.461 27.5078 133.758 27.3984L133.453 27.5625C133.25 27.4531 133.094 27.3984 132.984 27.3984V27.0938H133.148C133.43 27.0938 134.461 27.0391 136.242 26.9297V26.625L131.906 25.2422C131.594 25.2422 131.234 25.1875 130.828 25.0781C130.656 25.1875 130.453 25.2422 130.219 25.2422C129.562 24.9297 128.633 24.6172 127.43 24.3047V24H128.531V23.6953C125.344 22.5078 123.18 20.9141 122.039 18.9141C121.258 17.8516 120.797 16.6719 120.656 15.375L120.961 15.2109H121.57C121.68 15.2109 121.734 15.2656 121.734 15.375C121.891 15.2656 122.195 15.2109 122.648 15.2109V14.9062H120.656V14.6016C121.172 14.6016 121.43 14.5 121.43 14.2969L120.352 13.6641C120.195 13.2578 120.039 13.0547 119.883 13.0547H118.172V11.8125C118.172 8.59375 119.664 5.76562 122.648 3.32812H123.117C123.227 3.32812 123.281 3.38281 123.281 3.49219L123.586 3.32812L123.891 3.49219C124.516 3.38281 124.828 3.22656 124.828 3.02344L124.5 2.85938H123.586V2.71875C124.914 1.95312 125.578 1.49219 125.578 1.33594C125.578 1.03906 126.812 0.78125 129.281 0.5625H131.602C131.836 0.5625 132.047 0.507813 132.234 0.398438ZM123.281 14.9062V15.2109H123.422V14.9062H123.281ZM123.727 14.9062V15.2109H124.195C124.195 15.0078 124.094 14.9062 123.891 14.9062H123.727ZM116.953 14.9062H117.258V15.2109H116.953V14.9062ZM117.727 14.9062H118.172V15.2109H117.727V14.9062ZM129.609 27.0938H131.133V27.5625L130.055 27.3984H129.609V27.0938ZM124.969 29.8594V30.1875H125.133V29.8594H124.969ZM154.922 0.46875H177.469C177.609 0.46875 177.766 0.625 177.938 0.9375V6.35156C177.938 6.49219 178.094 6.64844 178.406 6.82031H179.039C179.289 6.82031 179.508 6.76563 179.695 6.65625C180.211 6.79688 180.469 6.95313 180.469 7.125V7.45312C180.469 7.65625 180.367 7.75781 180.164 7.75781H179.367V8.55469C179.367 8.77344 179.258 8.88281 179.039 8.88281H168.094C166.984 8.88281 165.297 8.9375 163.031 9.04688V10.4766C163.062 10.6797 163.164 10.7812 163.336 10.7812H164.766C164.984 10.8125 165.094 10.9219 165.094 11.1094V17.9297H178.898C179.102 17.9609 179.203 18.0625 179.203 18.2344V20.625C179.203 20.8281 178.625 20.9844 177.469 21.0938L177.141 20.9297L176.203 21.0938C175.984 20.9844 175.82 20.9297 175.711 20.9297L175.547 21.7266V24.4219L175.711 26.0156L175.242 26.3438H161.742C161.742 26.7031 161.375 26.9141 160.641 26.9766L159.68 26.8125H159.375C159.156 26.8438 159.047 26.9531 159.047 27.1406V27.2812H160.008L161.602 27.4453V32.6953C161.602 33.2578 161.914 33.5703 162.539 33.6328C162.539 33.8672 162.594 34.0781 162.703 34.2656C162.594 34.4531 162.539 34.6641 162.539 34.8984V35.0625H177.633C177.836 35.0625 177.992 35.5938 178.102 36.6562H180.469C180.688 36.6875 180.797 36.7891 180.797 36.9609C180.797 37.1797 180.688 37.2891 180.469 37.2891H178.734L177.938 37.4531V43.4766H151.922C151.812 43.4766 151.758 43.4219 151.758 43.3125L151.43 43.4766H150.492C150.336 43.4766 150.172 43.3203 150 43.0078V42.6797C150 42.5703 150.055 42.5156 150.164 42.5156L150 42.2109V38.3906L149.203 38.25H147.797C147.578 38.25 147.469 38.1406 147.469 37.9219V37.5938C147.5 37.3906 147.609 37.2891 147.797 37.2891C149.562 37.1797 150.938 37.125 151.922 37.125H152.555V36.8203L150.961 36.6562H150.328C150.109 36.6562 150 36.5 150 36.1875L150.164 35.8594C150.055 35.6719 150 35.4609 150 35.2266C150 35.0859 150.32 34.9297 150.961 34.7578C151.07 34.5703 151.125 34.3516 151.125 34.1016C151.125 33.6484 150.75 33.3906 150 33.3281V27.9141L150.164 27.6094L149.859 27.4453H147.797C147.578 27.4453 147.469 27.3438 147.469 27.1406C147.5 26.9219 147.609 26.8125 147.797 26.8125H149.695C149.898 26.8125 150 26.7031 150 26.4844V21.2578C150 21.0391 150.164 20.9297 150.492 20.9297C150.82 20.9297 151.82 20.8828 153.492 20.7891V11.1094C153.492 10.7812 152.914 10.6172 151.758 10.6172H151.43V8.08594L152.555 7.45312V7.125C152.555 6.92187 152.445 6.82031 152.227 6.82031H150.328C150.109 6.82031 150 6.71094 150 6.49219V0.9375L150.164 0.632812C152.289 0.523437 153.875 0.46875 154.922 0.46875ZM148.898 19.5234H149.695C149.898 19.5547 150 19.6562 150 19.8281V20.625C150 20.8281 149.898 20.9297 149.695 20.9297H148.898C148.68 20.9297 148.57 20.8281 148.57 20.625V19.8281C148.617 19.625 148.727 19.5234 148.898 19.5234ZM154.617 37.125H156.047V36.8203H154.922C154.719 36.8516 154.617 36.9531 154.617 37.125ZM171.75 37.2891V37.9219C171.781 38.1406 171.891 38.25 172.078 38.25H174.281C174.281 38.125 174.336 37.9609 174.445 37.7578C174.336 37.5547 174.281 37.3984 174.281 37.2891H171.75ZM195 0.46875C195.109 0.46875 195.164 0.523437 195.164 0.632812L195.773 0.46875C200.742 0.46875 204.984 1.65625 208.5 4.03125C212.219 4.03125 214.078 4.44531 214.078 5.27344C216.406 7.14844 218.211 9.16406 219.492 11.3203V12.2578L213.75 15.1875C212.688 15.8125 211.914 16.125 211.43 16.125H209.883C207.555 12.875 205.438 11.0156 203.531 10.5469C202.906 10.25 201.922 9.89062 200.578 9.46875C198.75 9.46875 196.633 10.0859 194.227 11.3203V11.4844C195.367 11.4844 195.938 11.5859 195.938 11.7891C193.141 14.3047 191.742 16.2656 191.742 17.6719C191.414 18.0625 191.109 19.0938 190.828 20.7656H187.711C187.508 20.7969 187.406 20.9062 187.406 21.0938C187.406 21.2344 187.562 21.3828 187.875 21.5391H190.5C190.656 21.5391 190.914 22.8359 191.273 25.4297C191.805 27.5234 192.891 29.3828 194.531 31.0078L194.227 31.1484H192.516V31.4766C193.891 32.8203 196.164 33.8516 199.336 34.5703C200.508 34.5703 202.219 34.1016 204.469 33.1641C206.547 33.1641 208.148 32.4922 209.273 31.1484H209.414V30.8438H207.867V30.7031C208.258 30 208.93 29.0703 209.883 27.9141H211.734C211.953 27.9141 213.766 28.8438 217.172 30.7031C219.344 30.7031 220.844 31.1641 221.672 32.0859V32.25C221.25 32.7031 221.039 32.9609 221.039 33.0234L219.961 32.8594C219.289 32.8594 218.359 33.8906 217.172 35.9531C216.719 36.1719 215.891 36.2812 214.688 36.2812H214.383C214.227 36.2812 214.07 36.4297 213.914 36.7266H215.93V37.1953C212.633 40.2578 209.844 41.9688 207.562 42.3281C205.922 43.1406 204.062 43.5469 201.984 43.5469H198.727C193.086 43.5469 188.07 41.5391 183.68 37.5234C183.242 36.9922 182.469 36.7266 181.359 36.7266C181 36.8359 180.797 36.8906 180.75 36.8906C180.328 36.7344 180.117 36.5781 180.117 36.4219C180.148 36.2188 180.258 36.1172 180.445 36.1172C180.555 36.1172 180.703 36.1719 180.891 36.2812L181.828 36.1172H182.133V35.9531C180.273 33.4062 179.344 31.8594 179.344 31.3125V31.1484H180.891L181.664 31.0078C180.461 28.2578 179.789 25.4688 179.648 22.6406H177.656V22.1719H179.344C179.547 22.1719 179.648 22.0703 179.648 21.8672C179.648 21.6484 179.547 21.5391 179.344 21.5391H176.555C176.352 21.5391 176.25 21.4375 176.25 21.2344V20.7656C176.719 20.7656 177.031 20.7188 177.188 20.625L177.492 20.7656C179.039 20.7656 179.812 20.5625 179.812 20.1562C180.016 17.2344 180.844 14.4922 182.297 11.9297V11.7891C182.297 11.5859 182.195 11.4844 181.992 11.4844H180.445L180.117 11.3203C181.977 8.03906 184.094 5.76562 186.469 4.5C186.469 4.29687 186.367 4.19531 186.164 4.19531H183.07V4.03125C184.273 2.95312 186.445 1.96875 189.586 1.07812C191.258 0.78125 192.758 0.632812 194.086 0.632812H194.391C194.625 0.632812 194.828 0.578125 195 0.46875ZM184.922 22.1719V22.6406H185.391C185.594 22.6406 185.695 22.5312 185.695 22.3125L185.391 22.1719H184.922ZM201.352 30.8438H202.758C202.961 30.875 203.062 30.9766 203.062 31.1484C201.766 32.2891 200.836 32.8594 200.273 32.8594H199.031V32.5547C199.422 32.5547 200.195 31.9844 201.352 30.8438Z" fill="white"/>
</svg>
