<svg width="22" height="22" viewBox="0 0 22 22" fill="none" xmlns="http://www.w3.org/2000/svg">
<path fill-rule="evenodd" clip-rule="evenodd" d="M1.8335 11.0052C1.8335 5.94565 5.94788 1.83325 11.0002 1.83325C16.0524 1.83325 20.1668 5.94565 20.1668 11.0052C20.1668 16.0542 16.0524 20.1666 11.0002 20.1666C5.94788 20.1666 1.8335 16.0542 1.8335 11.0052ZM14.3629 11.933C14.4602 11.8357 14.5841 11.6854 14.6106 11.65C14.7522 11.4643 14.823 11.2343 14.823 11.0053C14.823 10.7479 14.7434 10.5091 14.5929 10.3146C14.5806 10.3022 14.5565 10.276 14.525 10.2417C14.4662 10.1777 14.3817 10.0857 14.301 10.005C13.5754 9.22676 11.6819 7.95324 10.6909 7.56411C10.5405 7.50309 10.16 7.36955 9.95652 7.3607C9.76187 7.3607 9.57606 7.40492 9.39909 7.49336C9.17789 7.61718 9.00093 7.81174 8.9036 8.04168C8.84166 8.20087 8.74433 8.67844 8.74433 8.68728C8.647 9.20907 8.59391 10.0581 8.59391 10.9955C8.59391 11.8896 8.647 12.7024 8.72663 13.233C8.72882 13.2352 8.73644 13.2732 8.74826 13.3321C8.78421 13.5114 8.85909 13.8848 8.93899 14.0378C9.13365 14.4093 9.51412 14.6392 9.92113 14.6392H9.95652C10.222 14.6304 10.7794 14.4004 10.7794 14.3916C11.7173 14.0024 13.5666 12.7908 14.3098 11.986L14.3629 11.933Z" fill="#8A909A"/>
</svg>
