<svg width="176" height="175" viewBox="0 0 176 175" fill="none" xmlns="http://www.w3.org/2000/svg">
<path d="M176 0H0V175H176V0Z" fill="#232323"/>
<path d="M15.1351 10H11V14.1622H15.1351V10Z" fill="#666666"/>
<path d="M19.2703 10H15.1351V14.1622H19.2703V10Z" fill="#666666"/>
<path d="M23.4054 10H19.2703V14.1622H23.4054V10Z" fill="#666666"/>
<path d="M27.5405 10H23.4054V14.1622H27.5405V10Z" fill="#666666"/>
<path d="M31.6757 10H27.5405V14.1622H31.6757V10Z" fill="#666666"/>
<path d="M35.8108 10H31.6757V14.1622H35.8108V10Z" fill="#666666"/>
<path d="M39.9459 10H35.8108V14.1622H39.9459V10Z" fill="#666666"/>
<path d="M48.2162 10H44.0811V14.1622H48.2162V10Z" fill="#666666"/>
<path d="M52.3514 10H48.2162V14.1622H52.3514V10Z" fill="#666666"/>
<path d="M56.4865 10H52.3514V14.1622H56.4865V10Z" fill="#666666"/>
<path d="M64.7568 10H60.6216V14.1622H64.7568V10Z" fill="#666666"/>
<path d="M73.027 10H68.8919V14.1622H73.027V10Z" fill="#666666"/>
<path d="M85.4324 10H81.2973V14.1622H85.4324V10Z" fill="#666666"/>
<path d="M89.5676 10H85.4324V14.1622H89.5676V10Z" fill="#666666"/>
<path d="M93.7027 10H89.5676V14.1622H93.7027V10Z" fill="#666666"/>
<path d="M97.8378 10H93.7027V14.1622H97.8378V10Z" fill="#666666"/>
<path d="M114.378 10H110.243V14.1622H114.378V10Z" fill="#666666"/>
<path d="M118.514 10H114.378V14.1622H118.514V10Z" fill="#666666"/>
<path d="M122.649 10H118.514V14.1622H122.649V10Z" fill="#666666"/>
<path d="M126.784 10H122.649V14.1622H126.784V10Z" fill="#666666"/>
<path d="M130.919 10H126.784V14.1622H130.919V10Z" fill="#666666"/>
<path d="M139.189 10H135.054V14.1622H139.189V10Z" fill="#666666"/>
<path d="M143.324 10H139.189V14.1622H143.324V10Z" fill="#666666"/>
<path d="M147.459 10H143.324V14.1622H147.459V10Z" fill="#666666"/>
<path d="M151.595 10H147.459V14.1622H151.595V10Z" fill="#666666"/>
<path d="M155.73 10H151.595V14.1622H155.73V10Z" fill="#666666"/>
<path d="M159.865 10H155.73V14.1622H159.865V10Z" fill="#666666"/>
<path d="M164 10H159.865V14.1622H164V10Z" fill="#666666"/>
<path d="M15.1351 14.1622H11V18.3243H15.1351V14.1622Z" fill="#666666"/>
<path d="M39.9459 14.1622H35.8108V18.3243H39.9459V14.1622Z" fill="#666666"/>
<path d="M56.4865 14.1622H52.3514V18.3243H56.4865V14.1622Z" fill="#666666"/>
<path d="M60.6216 14.1622H56.4865V18.3243H60.6216L60.6216 14.1622Z" fill="#666666"/>
<path d="M64.7568 14.1622H60.6216L60.6216 18.3243H64.7568V14.1622Z" fill="#666666"/>
<path d="M97.8378 14.1622H93.7027V18.3243H97.8378V14.1622Z" fill="#666666"/>
<path d="M106.108 14.1622H101.973V18.3243H106.108V14.1622Z" fill="#666666"/>
<path d="M114.378 14.1622H110.243V18.3243H114.378V14.1622Z" fill="#666666"/>
<path d="M118.514 14.1622H114.378V18.3243H118.514V14.1622Z" fill="#666666"/>
<path d="M122.649 14.1622H118.514V18.3243H122.649V14.1622Z" fill="#666666"/>
<path d="M139.189 14.1622H135.054V18.3243H139.189V14.1622Z" fill="#666666"/>
<path d="M164 14.1622H159.865V18.3243H164V14.1622Z" fill="#666666"/>
<path d="M15.1351 18.3243H11V22.4865H15.1351V18.3243Z" fill="#666666"/>
<path d="M23.4054 18.3243H19.2703V22.4865H23.4054V18.3243Z" fill="#666666"/>
<path d="M27.5405 18.3243H23.4054V22.4865H27.5405V18.3243Z" fill="#666666"/>
<path d="M31.6757 18.3243H27.5405V22.4865H31.6757V18.3243Z" fill="#666666"/>
<path d="M39.9459 18.3243H35.8108V22.4865H39.9459V18.3243Z" fill="#666666"/>
<path d="M56.4865 18.3243H52.3514V22.4865H56.4865V18.3243Z" fill="#666666"/>
<path d="M60.6216 18.3243H56.4865V22.4865H60.6216V18.3243Z" fill="#666666"/>
<path d="M73.027 18.3243H68.8919V22.4865H73.027V18.3243Z" fill="#666666"/>
<path d="M77.1622 18.3243H73.027V22.4865H77.1622V18.3243Z" fill="#666666"/>
<path d="M81.2973 18.3243H77.1622V22.4865H81.2973V18.3243Z" fill="#666666"/>
<path d="M93.7027 18.3243H89.5676V22.4865H93.7027V18.3243Z" fill="#666666"/>
<path d="M97.8378 18.3243H93.7027V22.4865H97.8378V18.3243Z" fill="#666666"/>
<path d="M101.973 18.3243H97.8378V22.4865H101.973V18.3243Z" fill="#666666"/>
<path d="M106.108 18.3243H101.973V22.4865H106.108V18.3243Z" fill="#666666"/>
<path d="M118.514 18.3243H114.378V22.4865H118.514V18.3243Z" fill="#666666"/>
<path d="M122.649 18.3243H118.514V22.4865H122.649V18.3243Z" fill="#666666"/>
<path d="M126.784 18.3243H122.649V22.4865H126.784V18.3243Z" fill="#666666"/>
<path d="M139.189 18.3243H135.054V22.4865H139.189V18.3243Z" fill="#666666"/>
<path d="M147.459 18.3243H143.324V22.4865H147.459V18.3243Z" fill="#666666"/>
<path d="M151.595 18.3243H147.459V22.4865H151.595V18.3243Z" fill="#666666"/>
<path d="M155.73 18.3243H151.595V22.4865H155.73V18.3243Z" fill="#666666"/>
<path d="M164 18.3243H159.865V22.4865H164V18.3243Z" fill="#666666"/>
<path d="M15.1351 22.4865H11V26.6486H15.1351V22.4865Z" fill="#666666"/>
<path d="M23.4054 22.4865H19.2703V26.6486H23.4054V22.4865Z" fill="#666666"/>
<path d="M27.5405 22.4865H23.4054V26.6486H27.5405V22.4865Z" fill="#666666"/>
<path d="M31.6757 22.4865H27.5405V26.6486H31.6757V22.4865Z" fill="#666666"/>
<path d="M39.9459 22.4865H35.8108V26.6486H39.9459V22.4865Z" fill="#666666"/>
<path d="M48.2162 22.4865H44.0811V26.6486H48.2162V22.4865Z" fill="#666666"/>
<path d="M56.4865 22.4865H52.3514V26.6486H56.4865V22.4865Z" fill="#666666"/>
<path d="M60.6216 22.4865H56.4865V26.6486H60.6216V22.4865Z" fill="#666666"/>
<path d="M68.8919 22.4865H64.7568V26.6486H68.8919V22.4865Z" fill="#666666"/>
<path d="M89.5676 22.4865H85.4324V26.6486H89.5676V22.4865Z" fill="#666666"/>
<path d="M93.7027 22.4865H89.5676V26.6486H93.7027V22.4865Z" fill="#666666"/>
<path d="M139.189 22.4865H135.054V26.6486H139.189V22.4865Z" fill="#666666"/>
<path d="M147.459 22.4865H143.324V26.6486H147.459V22.4865Z" fill="#666666"/>
<path d="M151.595 22.4865H147.459V26.6486H151.595V22.4865Z" fill="#666666"/>
<path d="M155.73 22.4865H151.595V26.6486H155.73V22.4865Z" fill="#666666"/>
<path d="M164 22.4865H159.865V26.6486H164V22.4865Z" fill="#666666"/>
<path d="M15.1351 26.6486H11V30.8108H15.1351V26.6486Z" fill="#666666"/>
<path d="M23.4054 26.6486H19.2703V30.8108H23.4054V26.6486Z" fill="#666666"/>
<path d="M27.5405 26.6486H23.4054V30.8108H27.5405V26.6486Z" fill="#666666"/>
<path d="M31.6757 26.6486H27.5405V30.8108H31.6757V26.6486Z" fill="#666666"/>
<path d="M39.9459 26.6486H35.8108V30.8108H39.9459V26.6486Z" fill="#666666"/>
<path d="M48.2162 26.6486H44.0811V30.8108H48.2162V26.6486Z" fill="#666666"/>
<path d="M56.4865 26.6486H52.3514V30.8108H56.4865V26.6486Z" fill="#666666"/>
<path d="M77.1622 26.6486H73.027V30.8108H77.1622V26.6486Z" fill="#666666"/>
<path d="M81.2973 26.6486H77.1622V30.8108H81.2973V26.6486Z" fill="#666666"/>
<path d="M85.4324 26.6486H81.2973V30.8108H85.4324L85.4324 26.6486Z" fill="#666666"/>
<path d="M93.7027 26.6486H89.5676V30.8108H93.7027V26.6486Z" fill="#666666"/>
<path d="M106.108 26.6486H101.973V30.8108H106.108V26.6486Z" fill="#666666"/>
<path d="M110.243 26.6486H106.108V30.8108H110.243V26.6486Z" fill="#666666"/>
<path d="M114.378 26.6486H110.243V30.8108H114.378V26.6486Z" fill="#666666"/>
<path d="M118.514 26.6486H114.378V30.8108H118.514V26.6486Z" fill="#666666"/>
<path d="M126.784 26.6486H122.649V30.8108H126.784V26.6486Z" fill="#666666"/>
<path d="M130.919 26.6486H126.784V30.8108H130.919V26.6486Z" fill="#666666"/>
<path d="M139.189 26.6486H135.054V30.8108H139.189V26.6486Z" fill="#666666"/>
<path d="M147.459 26.6486H143.324V30.8108H147.459V26.6486Z" fill="#666666"/>
<path d="M151.595 26.6486H147.459V30.8108H151.595V26.6486Z" fill="#666666"/>
<path d="M155.73 26.6486H151.595V30.8108H155.73V26.6486Z" fill="#666666"/>
<path d="M164 26.6486H159.865V30.8108H164V26.6486Z" fill="#666666"/>
<path d="M15.1351 30.8108H11V34.973H15.1351V30.8108Z" fill="#666666"/>
<path d="M39.9459 30.8108H35.8108V34.973H39.9459V30.8108Z" fill="#666666"/>
<path d="M48.2162 30.8108H44.0811V34.973H48.2162V30.8108Z" fill="#666666"/>
<path d="M56.4865 30.8108H52.3514V34.973H56.4865V30.8108Z" fill="#666666"/>
<path d="M60.6216 30.8108H56.4865V34.973H60.6216V30.8108Z" fill="#666666"/>
<path d="M68.8919 30.8108H64.7568V34.973H68.8919V30.8108Z" fill="#666666"/>
<path d="M85.4324 30.8108H81.2973L81.2973 34.973H85.4324V30.8108Z" fill="#666666"/>
<path d="M89.5676 30.8108H85.4324V34.973H89.5676V30.8108Z" fill="#666666"/>
<path d="M97.8378 30.8108H93.7027V34.973H97.8378V30.8108Z" fill="#666666"/>
<path d="M101.973 30.8108H97.8378V34.973H101.973V30.8108Z" fill="#666666"/>
<path d="M106.108 30.8108H101.973V34.973H106.108V30.8108Z" fill="#666666"/>
<path d="M110.243 30.8108H106.108V34.973H110.243V30.8108Z" fill="#666666"/>
<path d="M118.514 30.8108H114.378V34.973H118.514V30.8108Z" fill="#666666"/>
<path d="M122.649 30.8108H118.514V34.973H122.649V30.8108Z" fill="#666666"/>
<path d="M126.784 30.8108H122.649V34.973H126.784V30.8108Z" fill="#666666"/>
<path d="M139.189 30.8108H135.054V34.973H139.189V30.8108Z" fill="#666666"/>
<path d="M164 30.8108H159.865V34.973H164V30.8108Z" fill="#666666"/>
<path d="M15.1351 34.973H11V39.1351H15.1351V34.973Z" fill="#666666"/>
<path d="M19.2703 34.973H15.1351V39.1351H19.2703V34.973Z" fill="#666666"/>
<path d="M23.4054 34.973H19.2703V39.1351H23.4054V34.973Z" fill="#666666"/>
<path d="M27.5405 34.973H23.4054V39.1351H27.5405V34.973Z" fill="#666666"/>
<path d="M31.6757 34.973H27.5405V39.1351H31.6757V34.973Z" fill="#666666"/>
<path d="M35.8108 34.973H31.6757V39.1351H35.8108V34.973Z" fill="#666666"/>
<path d="M39.9459 34.973H35.8108V39.1351H39.9459V34.973Z" fill="#666666"/>
<path d="M48.2162 34.973H44.0811V39.1351H48.2162V34.973Z" fill="#666666"/>
<path d="M56.4865 34.973H52.3514V39.1351H56.4865V34.973Z" fill="#666666"/>
<path d="M64.7568 34.973H60.6216L60.6216 39.1351H64.7568L64.7568 34.973Z" fill="#666666"/>
<path d="M73.027 34.973H68.8919V39.1351H73.027V34.973Z" fill="#666666"/>
<path d="M81.2973 34.973H77.1622V39.1351H81.2973L81.2973 34.973Z" fill="#666666"/>
<path d="M89.5676 34.973H85.4324L85.4324 39.1351H89.5676V34.973Z" fill="#666666"/>
<path d="M97.8378 34.973H93.7027V39.1351H97.8378V34.973Z" fill="#666666"/>
<path d="M106.108 34.973H101.973V39.1351H106.108V34.973Z" fill="#666666"/>
<path d="M114.378 34.973H110.243V39.1351H114.378V34.973Z" fill="#666666"/>
<path d="M122.649 34.973H118.514V39.1351H122.649V34.973Z" fill="#666666"/>
<path d="M130.919 34.973H126.784V39.1351H130.919V34.973Z" fill="#666666"/>
<path d="M139.189 34.973H135.054V39.1351H139.189V34.973Z" fill="#666666"/>
<path d="M143.324 34.973H139.189V39.1351H143.324V34.973Z" fill="#666666"/>
<path d="M147.459 34.973H143.324V39.1351H147.459V34.973Z" fill="#666666"/>
<path d="M151.595 34.973H147.459V39.1351H151.595V34.973Z" fill="#666666"/>
<path d="M155.73 34.973H151.595V39.1351H155.73V34.973Z" fill="#666666"/>
<path d="M159.865 34.973H155.73V39.1351H159.865V34.973Z" fill="#666666"/>
<path d="M164 34.973H159.865V39.1351H164V34.973Z" fill="#666666"/>
<path d="M48.2162 39.1351H44.0811V43.2973H48.2162V39.1351Z" fill="#666666"/>
<path d="M52.3514 39.1351H48.2162V43.2973H52.3514V39.1351Z" fill="#666666"/>
<path d="M64.7568 39.1351H60.6216V43.2973H64.7568V39.1351Z" fill="#666666"/>
<path d="M68.8919 39.1351H64.7568V43.2973H68.8919V39.1351Z" fill="#666666"/>
<path d="M89.5676 39.1351H85.4324V43.2973H89.5676V39.1351Z" fill="#666666"/>
<path d="M93.7027 39.1351H89.5676V43.2973H93.7027V39.1351Z" fill="#666666"/>
<path d="M110.243 39.1351H106.108V43.2973H110.243V39.1351Z" fill="#666666"/>
<path d="M114.378 39.1351H110.243V43.2973H114.378V39.1351Z" fill="#666666"/>
<path d="M118.514 39.1351H114.378V43.2973H118.514V39.1351Z" fill="#666666"/>
<path d="M122.649 39.1351H118.514V43.2973H122.649V39.1351Z" fill="#666666"/>
<path d="M126.784 39.1351H122.649V43.2973H126.784V39.1351Z" fill="#666666"/>
<path d="M130.919 39.1351H126.784V43.2973H130.919V39.1351Z" fill="#666666"/>
<path d="M15.1351 43.2973H11V47.4595H15.1351V43.2973Z" fill="#666666"/>
<path d="M19.2703 43.2973H15.1351V47.4595H19.2703V43.2973Z" fill="#666666"/>
<path d="M23.4054 43.2973H19.2703V47.4595H23.4054V43.2973Z" fill="#666666"/>
<path d="M31.6757 43.2973H27.5405V47.4595H31.6757V43.2973Z" fill="#666666"/>
<path d="M39.9459 43.2973H35.8108V47.4595H39.9459V43.2973Z" fill="#666666"/>
<path d="M48.2162 43.2973H44.0811V47.4595H48.2162V43.2973Z" fill="#666666"/>
<path d="M56.4865 43.2973H52.3514V47.4595H56.4865V43.2973Z" fill="#666666"/>
<path d="M81.2973 43.2973H77.1622V47.4595H81.2973V43.2973Z" fill="#666666"/>
<path d="M85.4324 43.2973H81.2973V47.4595H85.4324L85.4324 43.2973Z" fill="#666666"/>
<path d="M101.973 43.2973H97.8378V47.4595H101.973V43.2973Z" fill="#666666"/>
<path d="M106.108 43.2973H101.973V47.4595H106.108V43.2973Z" fill="#666666"/>
<path d="M114.378 43.2973H110.243V47.4595H114.378V43.2973Z" fill="#666666"/>
<path d="M130.919 43.2973H126.784V47.4595H130.919V43.2973Z" fill="#666666"/>
<path d="M135.054 43.2973H130.919V47.4595H135.054V43.2973Z" fill="#666666"/>
<path d="M139.189 43.2973H135.054V47.4595H139.189V43.2973Z" fill="#666666"/>
<path d="M143.324 43.2973H139.189V47.4595H143.324V43.2973Z" fill="#666666"/>
<path d="M147.459 43.2973H143.324V47.4595H147.459V43.2973Z" fill="#666666"/>
<path d="M151.595 43.2973H147.459V47.4595H151.595V43.2973Z" fill="#666666"/>
<path d="M164 43.2973H159.865V47.4595H164V43.2973Z" fill="#666666"/>
<path d="M15.1351 47.4595H11V51.6216H15.1351V47.4595Z" fill="#666666"/>
<path d="M27.5405 47.4595H23.4054V51.6216H27.5405V47.4595Z" fill="#666666"/>
<path d="M31.6757 47.4595H27.5405V51.6216H31.6757V47.4595Z" fill="#666666"/>
<path d="M44.0811 47.4595H39.9459V51.6216H44.0811V47.4595Z" fill="#666666"/>
<path d="M48.2162 47.4595H44.0811V51.6216H48.2162V47.4595Z" fill="#666666"/>
<path d="M52.3514 47.4595H48.2162V51.6216H52.3514V47.4595Z" fill="#666666"/>
<path d="M64.7568 47.4595H60.6216V51.6216H64.7568V47.4595Z" fill="#666666"/>
<path d="M77.1622 47.4595H73.027V51.6216H77.1622L77.1622 47.4595Z" fill="#666666"/>
<path d="M81.2973 47.4595H77.1622L77.1622 51.6216H81.2973V47.4595Z" fill="#666666"/>
<path d="M85.4324 47.4595H81.2973V51.6216H85.4324V47.4595Z" fill="#666666"/>
<path d="M101.973 47.4595H97.8378V51.6216H101.973V47.4595Z" fill="#666666"/>
<path d="M106.108 47.4595H101.973V51.6216H106.108V47.4595Z" fill="#666666"/>
<path d="M110.243 47.4595H106.108V51.6216H110.243V47.4595Z" fill="#666666"/>
<path d="M114.378 47.4595H110.243V51.6216H114.378V47.4595Z" fill="#666666"/>
<path d="M118.514 47.4595H114.378V51.6216H118.514V47.4595Z" fill="#666666"/>
<path d="M122.649 47.4595H118.514V51.6216H122.649V47.4595Z" fill="#666666"/>
<path d="M135.054 47.4595H130.919V51.6216H135.054V47.4595Z" fill="#666666"/>
<path d="M139.189 47.4595H135.054V51.6216H139.189V47.4595Z" fill="#666666"/>
<path d="M143.324 47.4595H139.189V51.6216H143.324V47.4595Z" fill="#666666"/>
<path d="M147.459 47.4595H143.324V51.6216H147.459V47.4595Z" fill="#666666"/>
<path d="M151.595 47.4595H147.459V51.6216H151.595V47.4595Z" fill="#666666"/>
<path d="M159.865 47.4595H155.73V51.6216H159.865V47.4595Z" fill="#666666"/>
<path d="M15.1351 51.6216H11V55.7838H15.1351V51.6216Z" fill="#666666"/>
<path d="M35.8108 51.6216H31.6757V55.7838H35.8108V51.6216Z" fill="#666666"/>
<path d="M39.9459 51.6216H35.8108V55.7838H39.9459V51.6216Z" fill="#666666"/>
<path d="M48.2162 51.6216H44.0811V55.7838H48.2162V51.6216Z" fill="#666666"/>
<path d="M52.3514 51.6216H48.2162V55.7838H52.3514V51.6216Z" fill="#666666"/>
<path d="M68.8919 51.6216H64.7568L64.7568 55.7838H68.8919V51.6216Z" fill="#666666"/>
<path d="M73.027 51.6216H68.8919V55.7838H73.027L73.027 51.6216Z" fill="#666666"/>
<path d="M85.4324 51.6216H81.2973L81.2973 55.7838H85.4324V51.6216Z" fill="#666666"/>
<path d="M101.973 51.6216H97.8378V55.7838H101.973V51.6216Z" fill="#666666"/>
<path d="M110.243 51.6216H106.108V55.7838H110.243V51.6216Z" fill="#666666"/>
<path d="M118.514 51.6216H114.378V55.7838H118.514V51.6216Z" fill="#666666"/>
<path d="M122.649 51.6216H118.514V55.7838H122.649V51.6216Z" fill="#666666"/>
<path d="M126.784 51.6216H122.649V55.7838H126.784V51.6216Z" fill="#666666"/>
<path d="M130.919 51.6216H126.784V55.7838H130.919V51.6216Z" fill="#666666"/>
<path d="M135.054 51.6216H130.919V55.7838H135.054V51.6216Z" fill="#666666"/>
<path d="M143.324 51.6216H139.189V55.7838H143.324V51.6216Z" fill="#666666"/>
<path d="M151.595 51.6216H147.459V55.7838H151.595V51.6216Z" fill="#666666"/>
<path d="M164 51.6216H159.865V55.7838H164V51.6216Z" fill="#666666"/>
<path d="M15.1351 55.7838H11V59.9459H15.1351V55.7838Z" fill="#666666"/>
<path d="M27.5405 55.7838H23.4054V59.9459H27.5405V55.7838Z" fill="#666666"/>
<path d="M48.2162 55.7838H44.0811V59.9459H48.2162V55.7838Z" fill="#666666"/>
<path d="M56.4865 55.7838H52.3514V59.9459H56.4865V55.7838Z" fill="#666666"/>
<path d="M60.6216 55.7838H56.4865V59.9459H60.6216V55.7838Z" fill="#666666"/>
<path d="M64.7568 55.7838H60.6216V59.9459H64.7568L64.7568 55.7838Z" fill="#666666"/>
<path d="M73.027 55.7838H68.8919V59.9459H73.027V55.7838Z" fill="#666666"/>
<path d="M77.1622 55.7838H73.027V59.9459H77.1622V55.7838Z" fill="#666666"/>
<path d="M81.2973 55.7838H77.1622V59.9459H81.2973L81.2973 55.7838Z" fill="#666666"/>
<path d="M85.4324 55.7838H81.2973L81.2973 59.9459H85.4324V55.7838Z" fill="#666666"/>
<path d="M106.108 55.7838H101.973V59.9459H106.108V55.7838Z" fill="#666666"/>
<path d="M110.243 55.7838H106.108V59.9459H110.243V55.7838Z" fill="#666666"/>
<path d="M118.514 55.7838H114.378V59.9459H118.514V55.7838Z" fill="#666666"/>
<path d="M122.649 55.7838H118.514V59.9459H122.649V55.7838Z" fill="#666666"/>
<path d="M126.784 55.7838H122.649V59.9459H126.784V55.7838Z" fill="#666666"/>
<path d="M139.189 55.7838H135.054V59.9459H139.189V55.7838Z" fill="#666666"/>
<path d="M147.459 55.7838H143.324V59.9459H147.459V55.7838Z" fill="#666666"/>
<path d="M151.595 55.7838H147.459V59.9459H151.595V55.7838Z" fill="#666666"/>
<path d="M155.73 55.7838H151.595V59.9459H155.73V55.7838Z" fill="#666666"/>
<path d="M159.865 55.7838H155.73V59.9459H159.865V55.7838Z" fill="#666666"/>
<path d="M164 55.7838H159.865V59.9459H164V55.7838Z" fill="#666666"/>
<path d="M15.1351 59.9459H11V64.1081H15.1351V59.9459Z" fill="#666666"/>
<path d="M19.2703 59.946L15.1351 59.9459V64.1081H19.2703V59.946Z" fill="#666666"/>
<path d="M23.4054 59.9459L19.2703 59.946V64.1081H23.4054V59.9459Z" fill="#666666"/>
<path d="M27.5405 59.9459H23.4054V64.1081H27.5405V59.9459Z" fill="#666666"/>
<path d="M31.6757 59.946L27.5405 59.9459V64.1081H31.6757V59.946Z" fill="#666666"/>
<path d="M35.8108 59.946H31.6757V64.1081H35.8108V59.946Z" fill="#666666"/>
<path d="M39.9459 59.946H35.8108V64.1081H39.9459V59.946Z" fill="#666666"/>
<path d="M52.3514 59.9459H48.2162V64.1081H52.3514V59.9459Z" fill="#666666"/>
<path d="M56.4865 59.9459H52.3514V64.1081H56.4865V59.9459Z" fill="#666666"/>
<path d="M60.6216 59.9459H56.4865V64.1081H60.6216V59.9459Z" fill="#666666"/>
<path d="M64.7568 59.9459H60.6216V64.1081H64.7568V59.9459Z" fill="#666666"/>
<path d="M77.1622 59.9459H73.027L73.027 64.1081H77.1622V59.9459Z" fill="#666666"/>
<path d="M85.4324 59.9459H81.2973L81.2973 64.1081H85.4324V59.9459Z" fill="#666666"/>
<path d="M101.973 59.9459L97.8378 59.946V64.1081H101.973V59.9459Z" fill="#666666"/>
<path d="M110.243 59.9459H106.108V64.1081H110.243V59.9459Z" fill="#666666"/>
<path d="M114.378 59.9459H110.243V64.1081H114.378V59.9459Z" fill="#666666"/>
<path d="M126.784 59.9459H122.649V64.1081H126.784V59.9459Z" fill="#666666"/>
<path d="M130.919 59.946L126.784 59.9459V64.1081H130.919V59.946Z" fill="#666666"/>
<path d="M135.054 59.9459L130.919 59.946V64.1081H135.054V59.9459Z" fill="#666666"/>
<path d="M143.324 59.9459H139.189V64.1081H143.324V59.9459Z" fill="#666666"/>
<path d="M147.459 59.9459H143.324V64.1081H147.459V59.9459Z" fill="#666666"/>
<path d="M151.595 59.9459H147.459V64.1081H151.595V59.9459Z" fill="#666666"/>
<path d="M159.865 59.9459H155.73V64.1081H159.865V59.9459Z" fill="#666666"/>
<path d="M164 59.9459H159.865V64.1081H164V59.9459Z" fill="#666666"/>
<path d="M15.1351 64.1081H11V68.2703H15.1351V64.1081Z" fill="#666666"/>
<path d="M31.6757 64.1081H27.5405V68.2703H31.6757V64.1081Z" fill="#666666"/>
<path d="M44.0811 64.1081L39.9459 64.1081V68.2703H44.0811V64.1081Z" fill="#666666"/>
<path d="M48.2162 64.1081L44.0811 64.1081V68.2703H48.2162V64.1081Z" fill="#666666"/>
<path d="M52.3514 64.1081H48.2162V68.2703H52.3514V64.1081Z" fill="#666666"/>
<path d="M60.6216 64.1081H56.4865V68.2703H60.6216V64.1081Z" fill="#666666"/>
<path d="M64.7568 64.1081H60.6216V68.2703H64.7568V64.1081Z" fill="#666666"/>
<path d="M81.2973 64.1081H77.1622L77.1622 68.2703H81.2973L81.2973 64.1081Z" fill="#666666"/>
<path d="M89.5676 64.1081L85.4324 64.1081L85.4324 68.2703H89.5676V64.1081Z" fill="#666666"/>
<path d="M93.7027 64.1081H89.5676V68.2703H93.7027V64.1081Z" fill="#666666"/>
<path d="M97.8378 64.1081L93.7027 64.1081V68.2703H97.8378V64.1081Z" fill="#666666"/>
<path d="M106.108 64.1081H101.973V68.2703H106.108V64.1081Z" fill="#666666"/>
<path d="M110.243 64.1081H106.108V68.2703H110.243V64.1081Z" fill="#666666"/>
<path d="M118.514 64.1081L114.378 64.1081V68.2703H118.514V64.1081Z" fill="#666666"/>
<path d="M130.919 64.1081H126.784V68.2703H130.919V64.1081Z" fill="#666666"/>
<path d="M135.054 64.1081H130.919V68.2703H135.054V64.1081Z" fill="#666666"/>
<path d="M143.324 64.1081H139.189V68.2703H143.324V64.1081Z" fill="#666666"/>
<path d="M147.459 64.1081H143.324V68.2703H147.459V64.1081Z" fill="#666666"/>
<path d="M155.73 64.1081H151.595V68.2703H155.73V64.1081Z" fill="#666666"/>
<path d="M164 64.1081H159.865V68.2703H164V64.1081Z" fill="#666666"/>
<path d="M19.2703 68.2703H15.1351V72.4324H19.2703V68.2703Z" fill="#666666"/>
<path d="M31.6757 68.2703H27.5405V72.4324H31.6757V68.2703Z" fill="#666666"/>
<path d="M39.9459 68.2703H35.8108V72.4324H39.9459V68.2703Z" fill="#666666"/>
<path d="M56.4865 68.2703H52.3514V72.4324H56.4865V68.2703Z" fill="#666666"/>
<path d="M68.8919 68.2703H64.7568L64.7568 72.4324H68.8919V68.2703Z" fill="#666666"/>
<path d="M77.1622 68.2703H73.027V72.4324H77.1622L77.1622 68.2703Z" fill="#666666"/>
<path d="M89.5676 68.2703H85.4324V72.4324H89.5676V68.2703Z" fill="#666666"/>
<path d="M106.108 68.2703H101.973V72.4324H106.108V68.2703Z" fill="#666666"/>
<path d="M114.378 68.2703H110.243V72.4324H114.378V68.2703Z" fill="#666666"/>
<path d="M130.919 68.2703H126.784V72.4324H130.919V68.2703Z" fill="#666666"/>
<path d="M147.459 68.2703H143.324V72.4324H147.459V68.2703Z" fill="#666666"/>
<path d="M151.595 68.2703H147.459V72.4324H151.595V68.2703Z" fill="#666666"/>
<path d="M155.73 68.2703H151.595V72.4324H155.73V68.2703Z" fill="#666666"/>
<path d="M159.865 68.2703H155.73V72.4324H159.865V68.2703Z" fill="#666666"/>
<path d="M15.1351 72.4324L11 72.4324V76.5946H15.1351V72.4324Z" fill="#666666"/>
<path d="M23.4054 72.4324L19.2703 72.4324V76.5946H23.4054V72.4324Z" fill="#666666"/>
<path d="M35.8108 72.4324H31.6757V76.5946H35.8108V72.4324Z" fill="#666666"/>
<path d="M44.0811 72.4324L39.9459 72.4324V76.5946H44.0811V72.4324Z" fill="#666666"/>
<path d="M48.2162 72.4324H44.0811V76.5946H48.2162V72.4324Z" fill="#666666"/>
<path d="M56.4865 72.4324H52.3514V76.5946H56.4865V72.4324Z" fill="#666666"/>
<path d="M64.7568 72.4324L60.6216 72.4324V76.5946H64.7568L64.7568 72.4324Z" fill="#666666"/>
<path d="M68.8919 72.4324H64.7568L64.7568 76.5946H68.8919V72.4324Z" fill="#666666"/>
<path d="M73.027 72.4324H68.8919V76.5946H73.027L73.027 72.4324Z" fill="#666666"/>
<path d="M77.1622 72.4324H73.027L73.027 76.5946H77.1622V72.4324Z" fill="#666666"/>
<path d="M93.7027 72.4324L89.5676 72.4324V76.5946H93.7027V72.4324Z" fill="#666666"/>
<path d="M101.973 72.4324L97.8378 72.4324V76.5946H101.973V72.4324Z" fill="#666666"/>
<path d="M106.108 72.4324H101.973V76.5946H106.108V72.4324Z" fill="#666666"/>
<path d="M122.649 72.4324H118.514V76.5946H122.649V72.4324Z" fill="#666666"/>
<path d="M130.919 72.4324H126.784V76.5946H130.919V72.4324Z" fill="#666666"/>
<path d="M135.054 72.4324L130.919 72.4324V76.5946H135.054V72.4324Z" fill="#666666"/>
<path d="M139.189 72.4324H135.054V76.5946H139.189V72.4324Z" fill="#666666"/>
<path d="M143.324 72.4324L139.189 72.4324V76.5946H143.324V72.4324Z" fill="#666666"/>
<path d="M159.865 72.4324H155.73V76.5946H159.865V72.4324Z" fill="#666666"/>
<path d="M15.1351 76.5946H11V80.7568H15.1351V76.5946Z" fill="#666666"/>
<path d="M23.4054 76.5946H19.2703V80.7568H23.4054V76.5946Z" fill="#666666"/>
<path d="M27.5405 76.5946L23.4054 76.5946V80.7568H27.5405V76.5946Z" fill="#666666"/>
<path d="M31.6757 76.5946L27.5405 76.5946V80.7568H31.6757V76.5946Z" fill="#666666"/>
<path d="M39.9459 76.5946H35.8108V80.7568H39.9459V76.5946Z" fill="#666666"/>
<path d="M52.3514 76.5946H48.2162V80.7568H52.3514V76.5946Z" fill="#666666"/>
<path d="M56.4865 76.5946H52.3514V80.7568H56.4865V76.5946Z" fill="#666666"/>
<path d="M60.6216 76.5946H56.4865V80.7568H60.6216L60.6216 76.5946Z" fill="#666666"/>
<path d="M64.7568 76.5946H60.6216L60.6216 80.7568H64.7568V76.5946Z" fill="#666666"/>
<path d="M68.8919 76.5946H64.7568V80.7568H68.8919V76.5946Z" fill="#666666"/>
<path d="M73.027 76.5946H68.8919V80.7568H73.027V76.5946Z" fill="#666666"/>
<path d="M77.1622 76.5946H73.027V80.7568H77.1622V76.5946Z" fill="#666666"/>
<path d="M89.5676 76.5946L85.4324 76.5946V80.7568H89.5676V76.5946Z" fill="#666666"/>
<path d="M93.7027 76.5946H89.5676V80.7568H93.7027V76.5946Z" fill="#666666"/>
<path d="M106.108 76.5946H101.973V80.7568H106.108V76.5946Z" fill="#666666"/>
<path d="M126.784 76.5946H122.649V80.7568H126.784V76.5946Z" fill="#666666"/>
<path d="M135.054 76.5946H130.919V80.7568H135.054V76.5946Z" fill="#666666"/>
<path d="M147.459 76.5946L143.324 76.5946V80.7568H147.459V76.5946Z" fill="#666666"/>
<path d="M164 76.5946L159.865 76.5946V80.7568H164V76.5946Z" fill="#666666"/>
<path d="M19.2703 80.7568H15.1351V84.9189H19.2703V80.7568Z" fill="#666666"/>
<path d="M27.5405 80.7568H23.4054V84.9189H27.5405V80.7568Z" fill="#666666"/>
<path d="M44.0811 80.7568L39.9459 80.7568V84.9189H44.0811V80.7568Z" fill="#666666"/>
<path d="M60.6216 80.7568H56.4865V84.9189H60.6216V80.7568Z" fill="#666666"/>
<path d="M81.2973 80.7568L77.1622 80.7568L77.1622 84.9189H81.2973V80.7568Z" fill="#666666"/>
<path d="M89.5676 80.7568H85.4324V84.9189H89.5676V80.7568Z" fill="#666666"/>
<path d="M97.8378 80.7568L93.7027 80.7568V84.9189H97.8378V80.7568Z" fill="#666666"/>
<path d="M101.973 80.7568L97.8378 80.7568V84.9189H101.973V80.7568Z" fill="#666666"/>
<path d="M114.378 80.7568H110.243V84.9189H114.378V80.7568Z" fill="#666666"/>
<path d="M118.514 80.7568H114.378V84.9189H118.514V80.7568Z" fill="#666666"/>
<path d="M122.649 80.7568L118.514 80.7568V84.9189H122.649V80.7568Z" fill="#666666"/>
<path d="M135.054 80.7568H130.919V84.9189H135.054V80.7568Z" fill="#666666"/>
<path d="M139.189 80.7568L135.054 80.7568V84.9189H139.189V80.7568Z" fill="#666666"/>
<path d="M155.73 80.7568H151.595V84.9189H155.73V80.7568Z" fill="#666666"/>
<path d="M159.865 80.7568L155.73 80.7568V84.9189H159.865V80.7568Z" fill="#666666"/>
<path d="M39.9459 84.9189L35.8108 84.9189V89.0811H39.9459V84.9189Z" fill="#666666"/>
<path d="M44.0811 84.9189H39.9459V89.0811H44.0811V84.9189Z" fill="#666666"/>
<path d="M52.3514 84.9189H48.2162V89.0811H52.3514V84.9189Z" fill="#666666"/>
<path d="M60.6216 84.9189H56.4865V89.0811H60.6216V84.9189Z" fill="#666666"/>
<path d="M64.7568 84.9189L60.6216 84.9189V89.0811H64.7568V84.9189Z" fill="#666666"/>
<path d="M68.8919 84.9189H64.7568V89.0811H68.8919V84.9189Z" fill="#666666"/>
<path d="M73.027 84.9189H68.8919V89.0811H73.027V84.9189Z" fill="#666666"/>
<path d="M81.2973 84.9189H77.1622V89.0811H81.2973V84.9189Z" fill="#666666"/>
<path d="M101.973 84.9189H97.8378V89.0811H101.973V84.9189Z" fill="#666666"/>
<path d="M110.243 84.9189L106.108 84.9189V89.0811H110.243V84.9189Z" fill="#666666"/>
<path d="M118.514 84.9189H114.378V89.0811H118.514V84.9189Z" fill="#666666"/>
<path d="M122.649 84.9189H118.514V89.0811H122.649V84.9189Z" fill="#666666"/>
<path d="M135.054 84.9189H130.919V89.0811H135.054V84.9189Z" fill="#666666"/>
<path d="M139.189 84.9189H135.054V89.0811H139.189V84.9189Z" fill="#666666"/>
<path d="M147.459 84.9189H143.324V89.0811H147.459V84.9189Z" fill="#666666"/>
<path d="M155.73 84.9189H151.595V89.0811H155.73V84.9189Z" fill="#666666"/>
<path d="M15.1351 89.0811H11V93.2433H15.1351V89.0811Z" fill="#666666"/>
<path d="M19.2703 89.0811H15.1351V93.2433H19.2703V89.0811Z" fill="#666666"/>
<path d="M23.4054 89.0811H19.2703V93.2433H23.4054V89.0811Z" fill="#666666"/>
<path d="M31.6757 89.0811H27.5405V93.2433H31.6757V89.0811Z" fill="#666666"/>
<path d="M48.2162 89.0811H44.0811V93.2433H48.2162V89.0811Z" fill="#666666"/>
<path d="M56.4865 89.0811H52.3514V93.2433H56.4865V89.0811Z" fill="#666666"/>
<path d="M60.6216 89.0811H56.4865V93.2433H60.6216V89.0811Z" fill="#666666"/>
<path d="M73.027 89.0811H68.8919V93.2433H73.027V89.0811Z" fill="#666666"/>
<path d="M89.5676 89.0811H85.4324V93.2433H89.5676V89.0811Z" fill="#666666"/>
<path d="M93.7027 89.0811H89.5676V93.2433H93.7027V89.0811Z" fill="#666666"/>
<path d="M97.8378 89.0811H93.7027V93.2433H97.8378V89.0811Z" fill="#666666"/>
<path d="M101.973 89.0811H97.8378V93.2433H101.973V89.0811Z" fill="#666666"/>
<path d="M114.378 89.0811H110.243V93.2433H114.378V89.0811Z" fill="#666666"/>
<path d="M118.514 89.0811H114.378V93.2433H118.514V89.0811Z" fill="#666666"/>
<path d="M126.784 89.0811H122.649V93.2433H126.784V89.0811Z" fill="#666666"/>
<path d="M130.919 89.0811H126.784V93.2433H130.919V89.0811Z" fill="#666666"/>
<path d="M135.054 89.0811H130.919V93.2433H135.054V89.0811Z" fill="#666666"/>
<path d="M139.189 89.0811H135.054V93.2433H139.189V89.0811Z" fill="#666666"/>
<path d="M143.324 89.0811H139.189V93.2433H143.324V89.0811Z" fill="#666666"/>
<path d="M164 89.0811H159.865V93.2433H164V89.0811Z" fill="#666666"/>
<path d="M15.1351 93.2433H11V97.4054H15.1351V93.2433Z" fill="#666666"/>
<path d="M27.5405 93.2433H23.4054V97.4054H27.5405V93.2433Z" fill="#666666"/>
<path d="M39.9459 93.2433H35.8108V97.4054H39.9459V93.2433Z" fill="#666666"/>
<path d="M44.0811 93.2433H39.9459V97.4054H44.0811V93.2433Z" fill="#666666"/>
<path d="M56.4865 93.2433H52.3514V97.4054H56.4865V93.2433Z" fill="#666666"/>
<path d="M60.6216 93.2433H56.4865V97.4054H60.6216V93.2433Z" fill="#666666"/>
<path d="M73.027 93.2433H68.8919V97.4054H73.027V93.2433Z" fill="#666666"/>
<path d="M93.7027 93.2433H89.5676V97.4054H93.7027V93.2433Z" fill="#666666"/>
<path d="M97.8378 93.2433H93.7027V97.4054H97.8378V93.2433Z" fill="#666666"/>
<path d="M106.108 93.2433H101.973V97.4054H106.108V93.2433Z" fill="#666666"/>
<path d="M110.243 93.2433H106.108V97.4054H110.243V93.2433Z" fill="#666666"/>
<path d="M114.378 93.2433H110.243V97.4054H114.378V93.2433Z" fill="#666666"/>
<path d="M130.919 93.2433H126.784V97.4054H130.919V93.2433Z" fill="#666666"/>
<path d="M135.054 93.2433H130.919V97.4054H135.054V93.2433Z" fill="#666666"/>
<path d="M147.459 93.2433H143.324V97.4054H147.459V93.2433Z" fill="#666666"/>
<path d="M151.595 93.2433H147.459V97.4054H151.595V93.2433Z" fill="#666666"/>
<path d="M164 93.2433H159.865V97.4054H164V93.2433Z" fill="#666666"/>
<path d="M15.1351 97.4054H11V101.568H15.1351V97.4054Z" fill="#666666"/>
<path d="M23.4054 97.4054H19.2703V101.568H23.4054V97.4054Z" fill="#666666"/>
<path d="M27.5405 97.4054H23.4054V101.568H27.5405V97.4054Z" fill="#666666"/>
<path d="M31.6757 97.4054H27.5405V101.568H31.6757V97.4054Z" fill="#666666"/>
<path d="M56.4865 97.4054H52.3514V101.568H56.4865V97.4054Z" fill="#666666"/>
<path d="M68.8919 97.4054H64.7568V101.568H68.8919V97.4054Z" fill="#666666"/>
<path d="M73.027 97.4054H68.8919V101.568H73.027V97.4054Z" fill="#666666"/>
<path d="M101.973 97.4054H97.8378V101.568H101.973V97.4054Z" fill="#666666"/>
<path d="M114.378 97.4054H110.243V101.568H114.378V97.4054Z" fill="#666666"/>
<path d="M122.649 97.4054H118.514V101.568H122.649V97.4054Z" fill="#666666"/>
<path d="M135.054 97.4054H130.919V101.568H135.054V97.4054Z" fill="#666666"/>
<path d="M143.324 97.4054H139.189V101.568H143.324V97.4054Z" fill="#666666"/>
<path d="M147.459 97.4054H143.324V101.568H147.459V97.4054Z" fill="#666666"/>
<path d="M151.595 97.4054H147.459V101.568H151.595V97.4054Z" fill="#666666"/>
<path d="M155.73 97.4054H151.595V101.568H155.73V97.4054Z" fill="#666666"/>
<path d="M15.1351 101.568H11V105.73H15.1351V101.568Z" fill="#666666"/>
<path d="M23.4054 101.568H19.2703V105.73H23.4054V101.568Z" fill="#666666"/>
<path d="M35.8108 101.568H31.6757V105.73H35.8108V101.568Z" fill="#666666"/>
<path d="M39.9459 101.568H35.8108V105.73H39.9459V101.568Z" fill="#666666"/>
<path d="M44.0811 101.568H39.9459V105.73H44.0811V101.568Z" fill="#666666"/>
<path d="M52.3514 101.568H48.2162V105.73H52.3514V101.568Z" fill="#666666"/>
<path d="M68.8919 101.568H64.7568V105.73H68.8919V101.568Z" fill="#666666"/>
<path d="M85.4324 101.568H81.2973V105.73H85.4324V101.568Z" fill="#666666"/>
<path d="M101.973 101.568H97.8378V105.73H101.973V101.568Z" fill="#666666"/>
<path d="M106.108 101.568H101.973V105.73H106.108V101.568Z" fill="#666666"/>
<path d="M114.378 101.568H110.243V105.73H114.378V101.568Z" fill="#666666"/>
<path d="M130.919 101.568H126.784V105.73H130.919V101.568Z" fill="#666666"/>
<path d="M135.054 101.568H130.919V105.73H135.054V101.568Z" fill="#666666"/>
<path d="M151.595 101.568H147.459V105.73H151.595V101.568Z" fill="#666666"/>
<path d="M155.73 101.568H151.595V105.73H155.73V101.568Z" fill="#666666"/>
<path d="M159.865 101.568H155.73V105.73H159.865V101.568Z" fill="#666666"/>
<path d="M164 101.568H159.865V105.73H164V101.568Z" fill="#666666"/>
<path d="M23.4054 105.73H19.2703V109.892H23.4054V105.73Z" fill="#666666"/>
<path d="M35.8108 105.73H31.6757V109.892H35.8108V105.73Z" fill="#666666"/>
<path d="M44.0811 105.73H39.9459V109.892H44.0811V105.73Z" fill="#666666"/>
<path d="M48.2162 105.73H44.0811V109.892H48.2162V105.73Z" fill="#666666"/>
<path d="M52.3514 105.73H48.2162V109.892H52.3514V105.73Z" fill="#666666"/>
<path d="M56.4865 105.73H52.3514V109.892H56.4865V105.73Z" fill="#666666"/>
<path d="M64.7568 105.73H60.6216V109.892H64.7568L64.7568 105.73Z" fill="#666666"/>
<path d="M68.8919 105.73H64.7568L64.7568 109.892H68.8919V105.73Z" fill="#666666"/>
<path d="M89.5676 105.73H85.4324L85.4324 109.892H89.5676V105.73Z" fill="#666666"/>
<path d="M101.973 105.73H97.8378V109.892H101.973V105.73Z" fill="#666666"/>
<path d="M106.108 105.73H101.973V109.892H106.108V105.73Z" fill="#666666"/>
<path d="M110.243 105.73H106.108V109.892H110.243V105.73Z" fill="#666666"/>
<path d="M114.378 105.73H110.243V109.892H114.378V105.73Z" fill="#666666"/>
<path d="M118.514 105.73H114.378V109.892H118.514V105.73Z" fill="#666666"/>
<path d="M139.189 105.73H135.054V109.892H139.189V105.73Z" fill="#666666"/>
<path d="M151.595 105.73H147.459V109.892H151.595V105.73Z" fill="#666666"/>
<path d="M155.73 105.73H151.595V109.892H155.73V105.73Z" fill="#666666"/>
<path d="M159.865 105.73H155.73V109.892H159.865V105.73Z" fill="#666666"/>
<path d="M164 105.73H159.865V109.892H164V105.73Z" fill="#666666"/>
<path d="M19.2703 109.892H15.1351V114.054H19.2703V109.892Z" fill="#666666"/>
<path d="M23.4054 109.892H19.2703V114.054H23.4054V109.892Z" fill="#666666"/>
<path d="M39.9459 109.892H35.8108V114.054H39.9459V109.892Z" fill="#666666"/>
<path d="M64.7568 109.892H60.6216V114.054H64.7568V109.892Z" fill="#666666"/>
<path d="M68.8919 109.892H64.7568V114.054H68.8919V109.892Z" fill="#666666"/>
<path d="M77.1622 109.892H73.027V114.054H77.1622V109.892Z" fill="#666666"/>
<path d="M81.2973 109.892H77.1622V114.054H81.2973V109.892Z" fill="#666666"/>
<path d="M106.108 109.892H101.973V114.054H106.108V109.892Z" fill="#666666"/>
<path d="M114.378 109.892H110.243V114.054H114.378V109.892Z" fill="#666666"/>
<path d="M122.649 109.892H118.514V114.054H122.649V109.892Z" fill="#666666"/>
<path d="M147.459 109.892H143.324V114.054H147.459V109.892Z" fill="#666666"/>
<path d="M164 109.892H159.865V114.054H164V109.892Z" fill="#666666"/>
<path d="M23.4054 114.054H19.2703V118.216H23.4054V114.054Z" fill="#666666"/>
<path d="M27.5405 114.054H23.4054V118.216H27.5405V114.054Z" fill="#666666"/>
<path d="M31.6757 114.054H27.5405V118.216H31.6757V114.054Z" fill="#666666"/>
<path d="M44.0811 114.054H39.9459V118.216H44.0811V114.054Z" fill="#666666"/>
<path d="M56.4865 114.054H52.3514V118.216H56.4865V114.054Z" fill="#666666"/>
<path d="M73.027 114.054H68.8919V118.216H73.027L73.027 114.054Z" fill="#666666"/>
<path d="M81.2973 114.054H77.1622L77.1622 118.216H81.2973V114.054Z" fill="#666666"/>
<path d="M85.4324 114.054H81.2973V118.216H85.4324V114.054Z" fill="#666666"/>
<path d="M93.7027 114.054H89.5676V118.216H93.7027V114.054Z" fill="#666666"/>
<path d="M101.973 114.054H97.8378V118.216H101.973V114.054Z" fill="#666666"/>
<path d="M118.514 114.054H114.378V118.216H118.514V114.054Z" fill="#666666"/>
<path d="M130.919 114.054H126.784V118.216H130.919V114.054Z" fill="#666666"/>
<path d="M139.189 114.054H135.054V118.216H139.189V114.054Z" fill="#666666"/>
<path d="M143.324 114.054H139.189V118.216H143.324V114.054Z" fill="#666666"/>
<path d="M151.595 114.054H147.459V118.216H151.595V114.054Z" fill="#666666"/>
<path d="M15.1351 118.216H11V122.378H15.1351V118.216Z" fill="#666666"/>
<path d="M23.4054 118.216H19.2703V122.378H23.4054V118.216Z" fill="#666666"/>
<path d="M35.8108 118.216H31.6757V122.378H35.8108V118.216Z" fill="#666666"/>
<path d="M39.9459 118.216H35.8108V122.378H39.9459V118.216Z" fill="#666666"/>
<path d="M48.2162 118.216H44.0811V122.378H48.2162V118.216Z" fill="#666666"/>
<path d="M52.3514 118.216H48.2162V122.378H52.3514V118.216Z" fill="#666666"/>
<path d="M56.4865 118.216H52.3514V122.378H56.4865V118.216Z" fill="#666666"/>
<path d="M60.6216 118.216H56.4865V122.378H60.6216V118.216Z" fill="#666666"/>
<path d="M68.8919 118.216H64.7568V122.378H68.8919V118.216Z" fill="#666666"/>
<path d="M81.2973 118.216H77.1622V122.378H81.2973V118.216Z" fill="#666666"/>
<path d="M97.8378 118.216H93.7027V122.378H97.8378V118.216Z" fill="#666666"/>
<path d="M101.973 118.216H97.8378V122.378H101.973V118.216Z" fill="#666666"/>
<path d="M110.243 118.216H106.108V122.378H110.243V118.216Z" fill="#666666"/>
<path d="M143.324 118.216H139.189V122.378H143.324V118.216Z" fill="#666666"/>
<path d="M147.459 118.216H143.324V122.378H147.459V118.216Z" fill="#666666"/>
<path d="M151.595 118.216H147.459V122.378H151.595V118.216Z" fill="#666666"/>
<path d="M155.73 118.216H151.595V122.378H155.73V118.216Z" fill="#666666"/>
<path d="M159.865 118.216H155.73V122.378H159.865V118.216Z" fill="#666666"/>
<path d="M27.5405 122.378H23.4054V126.541H27.5405V122.378Z" fill="#666666"/>
<path d="M48.2162 122.378H44.0811V126.541H48.2162V122.378Z" fill="#666666"/>
<path d="M52.3514 122.378H48.2162V126.541H52.3514V122.378Z" fill="#666666"/>
<path d="M56.4865 122.378H52.3514V126.541H56.4865V122.378Z" fill="#666666"/>
<path d="M60.6216 122.378H56.4865V126.541H60.6216V122.378Z" fill="#666666"/>
<path d="M64.7568 122.378H60.6216V126.541H64.7568L64.7568 122.378Z" fill="#666666"/>
<path d="M68.8919 122.378H64.7568L64.7568 126.541H68.8919V122.378Z" fill="#666666"/>
<path d="M73.027 122.378H68.8919V126.541H73.027V122.378Z" fill="#666666"/>
<path d="M77.1622 122.378H73.027V126.541H77.1622L77.1622 122.378Z" fill="#666666"/>
<path d="M81.2973 122.378H77.1622L77.1622 126.541H81.2973V122.378Z" fill="#666666"/>
<path d="M85.4324 122.378H81.2973V126.541H85.4324V122.378Z" fill="#666666"/>
<path d="M89.5676 122.378H85.4324V126.541H89.5676V122.378Z" fill="#666666"/>
<path d="M101.973 122.378H97.8378V126.541H101.973V122.378Z" fill="#666666"/>
<path d="M106.108 122.378H101.973V126.541H106.108V122.378Z" fill="#666666"/>
<path d="M110.243 122.378H106.108V126.541H110.243V122.378Z" fill="#666666"/>
<path d="M118.514 122.378H114.378V126.541H118.514V122.378Z" fill="#666666"/>
<path d="M122.649 122.378H118.514V126.541H122.649V122.378Z" fill="#666666"/>
<path d="M147.459 122.378H143.324V126.541H147.459V122.378Z" fill="#666666"/>
<path d="M151.595 122.378H147.459V126.541H151.595V122.378Z" fill="#666666"/>
<path d="M155.73 122.378H151.595V126.541H155.73V122.378Z" fill="#666666"/>
<path d="M15.1351 126.541H11V130.703H15.1351V126.541Z" fill="#666666"/>
<path d="M19.2703 126.541H15.1351V130.703H19.2703V126.541Z" fill="#666666"/>
<path d="M23.4054 126.541H19.2703V130.703H23.4054V126.541Z" fill="#666666"/>
<path d="M27.5405 126.541H23.4054V130.703H27.5405V126.541Z" fill="#666666"/>
<path d="M39.9459 126.541H35.8108V130.703H39.9459V126.541Z" fill="#666666"/>
<path d="M44.0811 126.541H39.9459V130.703H44.0811V126.541Z" fill="#666666"/>
<path d="M48.2162 126.541H44.0811V130.703H48.2162V126.541Z" fill="#666666"/>
<path d="M68.8919 126.541H64.7568L64.7568 130.703H68.8919V126.541Z" fill="#666666"/>
<path d="M73.027 126.541H68.8919V130.703H73.027V126.541Z" fill="#666666"/>
<path d="M77.1622 126.541H73.027V130.703H77.1622V126.541Z" fill="#666666"/>
<path d="M81.2973 126.541H77.1622V130.703H81.2973V126.541Z" fill="#666666"/>
<path d="M93.7027 126.541H89.5676V130.703H93.7027V126.541Z" fill="#666666"/>
<path d="M114.378 126.541H110.243V130.703H114.378V126.541Z" fill="#666666"/>
<path d="M122.649 126.541H118.514V130.703H122.649V126.541Z" fill="#666666"/>
<path d="M130.919 126.541H126.784V130.703H130.919V126.541Z" fill="#666666"/>
<path d="M135.054 126.541H130.919V130.703H135.054V126.541Z" fill="#666666"/>
<path d="M139.189 126.541H135.054V130.703H139.189V126.541Z" fill="#666666"/>
<path d="M143.324 126.541H139.189V130.703H143.324V126.541Z" fill="#666666"/>
<path d="M147.459 126.541H143.324V130.703H147.459V126.541Z" fill="#666666"/>
<path d="M164 126.541H159.865V130.703H164V126.541Z" fill="#666666"/>
<path d="M48.2162 130.703H44.0811V134.865H48.2162V130.703Z" fill="#666666"/>
<path d="M60.6216 130.703H56.4865V134.865H60.6216V130.703Z" fill="#666666"/>
<path d="M77.1622 130.703H73.027L73.027 134.865H77.1622V130.703Z" fill="#666666"/>
<path d="M93.7027 130.703H89.5676V134.865H93.7027V130.703Z" fill="#666666"/>
<path d="M97.8378 130.703H93.7027V134.865H97.8378V130.703Z" fill="#666666"/>
<path d="M101.973 130.703H97.8378V134.865H101.973V130.703Z" fill="#666666"/>
<path d="M110.243 130.703H106.108V134.865H110.243V130.703Z" fill="#666666"/>
<path d="M122.649 130.703H118.514V134.865H122.649V130.703Z" fill="#666666"/>
<path d="M126.784 130.703H122.649V134.865H126.784V130.703Z" fill="#666666"/>
<path d="M130.919 130.703H126.784V134.865H130.919V130.703Z" fill="#666666"/>
<path d="M147.459 130.703H143.324V134.865H147.459V130.703Z" fill="#666666"/>
<path d="M151.595 130.703H147.459V134.865H151.595V130.703Z" fill="#666666"/>
<path d="M15.1351 134.865H11V139.027H15.1351V134.865Z" fill="#666666"/>
<path d="M19.2703 134.865H15.1351V139.027H19.2703V134.865Z" fill="#666666"/>
<path d="M23.4054 134.865H19.2703V139.027H23.4054V134.865Z" fill="#666666"/>
<path d="M27.5405 134.865H23.4054V139.027H27.5405V134.865Z" fill="#666666"/>
<path d="M31.6757 134.865H27.5405V139.027H31.6757V134.865Z" fill="#666666"/>
<path d="M35.8108 134.865H31.6757V139.027H35.8108V134.865Z" fill="#666666"/>
<path d="M39.9459 134.865H35.8108V139.027H39.9459V134.865Z" fill="#666666"/>
<path d="M64.7568 134.865H60.6216L60.6216 139.027H64.7568V134.865Z" fill="#666666"/>
<path d="M73.027 134.865H68.8919V139.027H73.027L73.027 134.865Z" fill="#666666"/>
<path d="M77.1622 134.865H73.027L73.027 139.027H77.1622V134.865Z" fill="#666666"/>
<path d="M81.2973 134.865H77.1622V139.027H81.2973V134.865Z" fill="#666666"/>
<path d="M89.5676 134.865H85.4324V139.027H89.5676V134.865Z" fill="#666666"/>
<path d="M93.7027 134.865H89.5676V139.027H93.7027V134.865Z" fill="#666666"/>
<path d="M97.8378 134.865H93.7027V139.027H97.8378V134.865Z" fill="#666666"/>
<path d="M106.108 134.865H101.973V139.027H106.108V134.865Z" fill="#666666"/>
<path d="M110.243 134.865H106.108V139.027H110.243V134.865Z" fill="#666666"/>
<path d="M114.378 134.865H110.243V139.027H114.378V134.865Z" fill="#666666"/>
<path d="M122.649 134.865H118.514V139.027H122.649V134.865Z" fill="#666666"/>
<path d="M130.919 134.865H126.784V139.027H130.919V134.865Z" fill="#666666"/>
<path d="M139.189 134.865H135.054V139.027H139.189V134.865Z" fill="#666666"/>
<path d="M147.459 134.865H143.324V139.027H147.459V134.865Z" fill="#666666"/>
<path d="M151.595 134.865H147.459V139.027H151.595V134.865Z" fill="#666666"/>
<path d="M159.865 134.865H155.73V139.027H159.865V134.865Z" fill="#666666"/>
<path d="M164 134.865H159.865V139.027H164V134.865Z" fill="#666666"/>
<path d="M15.1351 139.027H11V143.189H15.1351V139.027Z" fill="#666666"/>
<path d="M39.9459 139.027H35.8108V143.189H39.9459V139.027Z" fill="#666666"/>
<path d="M52.3514 139.027H48.2162V143.189H52.3514V139.027Z" fill="#666666"/>
<path d="M60.6216 139.027H56.4865V143.189H60.6216L60.6216 139.027Z" fill="#666666"/>
<path d="M64.7568 139.027H60.6216L60.6216 143.189H64.7568V139.027Z" fill="#666666"/>
<path d="M77.1622 139.027H73.027L73.027 143.189H77.1622V139.027Z" fill="#666666"/>
<path d="M85.4324 139.027H81.2973L81.2973 143.189H85.4324L85.4324 139.027Z" fill="#666666"/>
<path d="M89.5676 139.027H85.4324L85.4324 143.189H89.5676V139.027Z" fill="#666666"/>
<path d="M93.7027 139.027H89.5676V143.189H93.7027V139.027Z" fill="#666666"/>
<path d="M97.8378 139.027H93.7027V143.189H97.8378V139.027Z" fill="#666666"/>
<path d="M106.108 139.027H101.973V143.189H106.108V139.027Z" fill="#666666"/>
<path d="M110.243 139.027H106.108V143.189H110.243V139.027Z" fill="#666666"/>
<path d="M126.784 139.027H122.649V143.189H126.784V139.027Z" fill="#666666"/>
<path d="M130.919 139.027H126.784V143.189H130.919V139.027Z" fill="#666666"/>
<path d="M147.459 139.027H143.324V143.189H147.459V139.027Z" fill="#666666"/>
<path d="M164 139.027H159.865V143.189H164V139.027Z" fill="#666666"/>
<path d="M15.1351 143.189H11V147.351H15.1351V143.189Z" fill="#666666"/>
<path d="M23.4054 143.189H19.2703V147.351H23.4054V143.189Z" fill="#666666"/>
<path d="M27.5405 143.189H23.4054V147.351H27.5405V143.189Z" fill="#666666"/>
<path d="M31.6757 143.189H27.5405V147.351H31.6757V143.189Z" fill="#666666"/>
<path d="M39.9459 143.189H35.8108V147.351H39.9459V143.189Z" fill="#666666"/>
<path d="M48.2162 143.189H44.0811V147.351H48.2162V143.189Z" fill="#666666"/>
<path d="M52.3514 143.189H48.2162V147.351H52.3514V143.189Z" fill="#666666"/>
<path d="M56.4865 143.189H52.3514V147.351H56.4865V143.189Z" fill="#666666"/>
<path d="M68.8919 143.189H64.7568L64.7568 147.351H68.8919V143.189Z" fill="#666666"/>
<path d="M73.027 143.189H68.8919V147.351H73.027L73.027 143.189Z" fill="#666666"/>
<path d="M97.8378 143.189H93.7027V147.351H97.8378V143.189Z" fill="#666666"/>
<path d="M101.973 143.189H97.8378V147.351H101.973V143.189Z" fill="#666666"/>
<path d="M110.243 143.189H106.108V147.351H110.243V143.189Z" fill="#666666"/>
<path d="M118.514 143.189H114.378V147.351H118.514V143.189Z" fill="#666666"/>
<path d="M122.649 143.189H118.514V147.351H122.649V143.189Z" fill="#666666"/>
<path d="M130.919 143.189H126.784V147.351H130.919V143.189Z" fill="#666666"/>
<path d="M135.054 143.189H130.919V147.351H135.054V143.189Z" fill="#666666"/>
<path d="M139.189 143.189H135.054V147.351H139.189V143.189Z" fill="#666666"/>
<path d="M143.324 143.189H139.189V147.351H143.324V143.189Z" fill="#666666"/>
<path d="M147.459 143.189H143.324V147.351H147.459V143.189Z" fill="#666666"/>
<path d="M155.73 143.189H151.595V147.351H155.73V143.189Z" fill="#666666"/>
<path d="M159.865 143.189H155.73V147.351H159.865V143.189Z" fill="#666666"/>
<path d="M15.1351 147.351H11V151.514H15.1351V147.351Z" fill="#666666"/>
<path d="M23.4054 147.351H19.2703V151.514H23.4054V147.351Z" fill="#666666"/>
<path d="M27.5405 147.351H23.4054V151.514H27.5405V147.351Z" fill="#666666"/>
<path d="M31.6757 147.351H27.5405V151.514H31.6757V147.351Z" fill="#666666"/>
<path d="M39.9459 147.351H35.8108V151.514H39.9459V147.351Z" fill="#666666"/>
<path d="M52.3514 147.351H48.2162V151.514H52.3514V147.351Z" fill="#666666"/>
<path d="M60.6216 147.351H56.4865V151.514H60.6216V147.351Z" fill="#666666"/>
<path d="M68.8919 147.351H64.7568V151.514H68.8919V147.351Z" fill="#666666"/>
<path d="M73.027 147.351H68.8919V151.514H73.027V147.351Z" fill="#666666"/>
<path d="M77.1622 147.351H73.027V151.514H77.1622V147.351Z" fill="#666666"/>
<path d="M85.4324 147.351H81.2973V151.514H85.4324V147.351Z" fill="#666666"/>
<path d="M89.5676 147.351H85.4324V151.514H89.5676V147.351Z" fill="#666666"/>
<path d="M97.8378 147.351H93.7027V151.514H97.8378V147.351Z" fill="#666666"/>
<path d="M106.108 147.351H101.973V151.514H106.108V147.351Z" fill="#666666"/>
<path d="M110.243 147.351H106.108V151.514H110.243V147.351Z" fill="#666666"/>
<path d="M118.514 147.351H114.378V151.514H118.514V147.351Z" fill="#666666"/>
<path d="M126.784 147.351H122.649V151.514H126.784V147.351Z" fill="#666666"/>
<path d="M159.865 147.351H155.73V151.514H159.865V147.351Z" fill="#666666"/>
<path d="M164 147.351H159.865V151.514H164V147.351Z" fill="#666666"/>
<path d="M15.1351 151.514H11V155.676H15.1351V151.514Z" fill="#666666"/>
<path d="M23.4054 151.514H19.2703V155.676H23.4054V151.514Z" fill="#666666"/>
<path d="M27.5405 151.514H23.4054V155.676H27.5405V151.514Z" fill="#666666"/>
<path d="M31.6757 151.514H27.5405V155.676H31.6757V151.514Z" fill="#666666"/>
<path d="M39.9459 151.514H35.8108V155.676H39.9459V151.514Z" fill="#666666"/>
<path d="M48.2162 151.514H44.0811V155.676H48.2162V151.514Z" fill="#666666"/>
<path d="M52.3514 151.514H48.2162V155.676H52.3514V151.514Z" fill="#666666"/>
<path d="M60.6216 151.514H56.4865V155.676H60.6216V151.514Z" fill="#666666"/>
<path d="M73.027 151.514H68.8919V155.676H73.027V151.514Z" fill="#666666"/>
<path d="M77.1622 151.514H73.027V155.676H77.1622V151.514Z" fill="#666666"/>
<path d="M81.2973 151.514H77.1622V155.676H81.2973L81.2973 151.514Z" fill="#666666"/>
<path d="M85.4324 151.514H81.2973L81.2973 155.676H85.4324V151.514Z" fill="#666666"/>
<path d="M89.5676 151.514H85.4324V155.676H89.5676V151.514Z" fill="#666666"/>
<path d="M101.973 151.514H97.8378V155.676H101.973V151.514Z" fill="#666666"/>
<path d="M110.243 151.514H106.108V155.676H110.243V151.514Z" fill="#666666"/>
<path d="M118.514 151.514H114.378V155.676H118.514V151.514Z" fill="#666666"/>
<path d="M122.649 151.514H118.514V155.676H122.649V151.514Z" fill="#666666"/>
<path d="M126.784 151.514H122.649V155.676H126.784V151.514Z" fill="#666666"/>
<path d="M130.919 151.514H126.784V155.676H130.919V151.514Z" fill="#666666"/>
<path d="M135.054 151.514H130.919V155.676H135.054V151.514Z" fill="#666666"/>
<path d="M151.595 151.514H147.459V155.676H151.595V151.514Z" fill="#666666"/>
<path d="M155.73 151.514H151.595V155.676H155.73V151.514Z" fill="#666666"/>
<path d="M159.865 151.514H155.73V155.676H159.865V151.514Z" fill="#666666"/>
<path d="M15.1351 155.676H11V159.838H15.1351V155.676Z" fill="#666666"/>
<path d="M39.9459 155.676H35.8108V159.838H39.9459V155.676Z" fill="#666666"/>
<path d="M48.2162 155.676H44.0811V159.838H48.2162V155.676Z" fill="#666666"/>
<path d="M52.3514 155.676H48.2162V159.838H52.3514V155.676Z" fill="#666666"/>
<path d="M60.6216 155.676H56.4865V159.838H60.6216V155.676Z" fill="#666666"/>
<path d="M73.027 155.676H68.8919V159.838H73.027V155.676Z" fill="#666666"/>
<path d="M101.973 155.676H97.8378V159.838H101.973V155.676Z" fill="#666666"/>
<path d="M114.378 155.676H110.243V159.838H114.378V155.676Z" fill="#666666"/>
<path d="M122.649 155.676H118.514V159.838H122.649V155.676Z" fill="#666666"/>
<path d="M135.054 155.676H130.919V159.838H135.054V155.676Z" fill="#666666"/>
<path d="M159.865 155.676H155.73V159.838H159.865V155.676Z" fill="#666666"/>
<path d="M15.1351 159.838H11V164H15.1351V159.838Z" fill="#666666"/>
<path d="M19.2703 159.838H15.1351V164H19.2703V159.838Z" fill="#666666"/>
<path d="M23.4054 159.838H19.2703V164H23.4054V159.838Z" fill="#666666"/>
<path d="M27.5405 159.838H23.4054V164H27.5405V159.838Z" fill="#666666"/>
<path d="M31.6757 159.838H27.5405V164H31.6757V159.838Z" fill="#666666"/>
<path d="M35.8108 159.838H31.6757V164H35.8108V159.838Z" fill="#666666"/>
<path d="M39.9459 159.838H35.8108V164H39.9459V159.838Z" fill="#666666"/>
<path d="M48.2162 159.838H44.0811V164H48.2162V159.838Z" fill="#666666"/>
<path d="M56.4865 159.838H52.3514V164H56.4865V159.838Z" fill="#666666"/>
<path d="M60.6216 159.838H56.4865V164H60.6216V159.838Z" fill="#666666"/>
<path d="M64.7568 159.838H60.6216V164H64.7568V159.838Z" fill="#666666"/>
<path d="M73.027 159.838H68.8919V164H73.027V159.838Z" fill="#666666"/>
<path d="M81.2973 159.838H77.1622V164H81.2973V159.838Z" fill="#666666"/>
<path d="M89.5676 159.838H85.4324V164H89.5676V159.838Z" fill="#666666"/>
<path d="M93.7027 159.838H89.5676V164H93.7027V159.838Z" fill="#666666"/>
<path d="M106.108 159.838H101.973V164H106.108V159.838Z" fill="#666666"/>
<path d="M110.243 159.838H106.108V164H110.243V159.838Z" fill="#666666"/>
<path d="M122.649 159.838H118.514V164H122.649V159.838Z" fill="#666666"/>
<path d="M130.919 159.838H126.784V164H130.919V159.838Z" fill="#666666"/>
<path d="M139.189 159.838H135.054V164H139.189V159.838Z" fill="#666666"/>
<path d="M143.324 159.838H139.189V164H143.324V159.838Z" fill="#666666"/>
<path d="M151.595 159.838H147.459V164H151.595V159.838Z" fill="#666666"/>
<path d="M155.73 159.838H151.595V164H155.73V159.838Z" fill="#666666"/>
<path d="M159.865 159.838H155.73V164H159.865V159.838Z" fill="#666666"/>
<path d="M164 159.838H159.865V164H164V159.838Z" fill="#666666"/>
</svg>
